<svg width="255" height="188" viewBox="0 0 255 188" fill="none" xmlns="http://www.w3.org/2000/svg">
<g clip-path="url(#clip0)">
<path d="M74.1227 69.0761C75.9667 67.4411 78.1641 66.3337 80.5271 65.5422C84.8253 63.8029 93.8259 62.005 93.8259 62.005C97.2329 61.783 100.617 61.754 103.89 62.8003C108.755 64.3557 111.159 67.4335 111.211 72.3195C111.231 74.1823 111.094 76.0474 111.085 77.9113C111.073 80.0454 111.218 80.1108 113.383 79.7133C115.048 79.4074 122.753 78.2224 124.694 77.8485C129.622 76.9013 134.484 75.6264 139.444 74.8465C141.216 74.5677 143.432 74.4635 145.768 74.2967C146.135 77.4227 146.73 80.5027 147.784 83.5119C140.619 111.756 137.461 116.952 136.025 116.909C126.686 116.618 117.349 117.263 108.012 117.418C102.729 117.507 97.4951 117.051 92.501 115.299C88.7492 113.984 85.9408 111.74 84.5194 108.094C83.8434 106.361 83.1553 104.631 82.5315 102.878C80.5696 97.3689 78.2871 92.0166 74.6765 87.2879C73.538 85.7966 72.4153 84.2909 71.5349 82.6332C68.9935 77.843 69.9212 72.8005 74.1227 69.0761Z" fill="#E0D7FB"/>
<path d="M80.9345 73.1898C80.3824 70.3911 100.015 66.423 100.816 69.4138C103.136 78.0752 82.5811 81.5354 80.9345 73.1898Z" fill="#CABDF3"/>
<path d="M84.7086 68.8988C83.2188 73.916 83.1512 74.7137 86.1315 74.8906C89.7088 75.1031 90.2807 75.0478 93.1393 74.7705C96.5702 74.4376 97.6649 74.1449 98.0614 72.2377C98.6599 70.6643 99.0459 69.0103 99.5275 67.3921C100.92 61.909 101.94 56.3222 104.02 51.0271C104.427 49.9898 105.033 49.4187 106.185 48.9878C108.99 47.9402 111.035 45.9302 112.284 43.2855C113 41.7696 112.912 40.1959 111.262 39.1644C110.254 38.5344 110.146 37.7288 110.403 36.8546C110.759 35.646 110.261 34.834 109.372 34.0585C107.158 32.1259 104.969 30.1659 102.769 28.2188C101.994 27.5341 101.029 27.1768 100.08 26.8397C97.9763 26.0959 96.0147 27.0594 95.1006 29.2721C94.3483 31.0964 94.2864 33.0662 94.088 34.9973C93.7501 38.3039 93.4906 41.619 93.1731 44.9288C93.1115 45.5699 93.0571 46.2505 92.8002 46.8259C90.5245 51.9439 85.2132 67.1992 84.7086 68.8988Z" fill="#FFB599"/>
<path d="M119.768 28.5464C113.224 28.3892 101.357 29.0081 95.1128 29.5037C93.6504 29.5363 91.9312 30.1845 91.6107 31.5783L90.8917 37.1694C90.4733 38.9974 91.7694 40.8108 93.6769 41.0637L118.868 44.399C120.598 44.629 122.174 43.478 122.437 41.7968L122.419 32.0459C122.717 30.141 121.74 28.594 119.768 28.5464Z" fill="#002E31"/>
<mask id="mask0" mask-type="alpha" maskUnits="userSpaceOnUse" x="58" y="0" width="197" height="179">
<path d="M123.701 164.715C136.888 173.453 152.506 178.546 169.263 178.579C216.418 178.671 254.645 138.814 254.645 89.5531C254.645 40.2937 216.418 0.28666 169.263 0.194314C122.108 0.101969 83.882 39.9593 83.882 89.2187C83.882 98.5444 85.2575 107.537 87.7997 115.991C79.0361 117.298 68.7031 117.776 57.9999 115.983C57.9999 115.983 84.7141 141.654 123.701 164.715Z" fill="white"/>
</mask>
<g mask="url(#mask0)">
<rect opacity="0.15" x="25.0917" y="-46.4104" width="262.368" height="233.336" fill="url(#paint0_linear)"/>
<path d="M161.11 185.25C154.693 182.315 149.042 178.232 144.654 172.683C144.606 172.549 144.564 172.414 144.53 172.277C144.317 171.377 143.832 170.547 143.693 169.59C143.072 165.327 143.193 161.095 144.394 156.954C146.261 150.506 148.216 144.087 150.176 137.668C152.36 130.511 153.035 123.227 152.041 115.818C150.864 107.046 143.807 98.8575 147.039 90.5503C148.582 86.5868 140.456 74.7765 145.676 74.55C148.575 74.4243 165.568 79.584 167.662 80.8765C167.356 82.3114 165.936 83.1593 165.259 84.3914C163.048 88.4099 163.397 84.3998 166.5 87.861C168.51 90.1047 169.948 91.0979 173 89.5001C176.575 87.6277 179.655 90.2013 178.882 86.384C178.639 85.1844 178.253 84.012 177.934 82.8279C178.429 82.6933 178.901 82.6591 179.265 83.1196C180.382 84.8687 190.846 86.1957 192.077 87.861C198.351 96.3524 199.524 105.088 200.518 115.343C201.287 123.276 197.742 129.528 200.562 142.216C201.911 148.284 202.11 149.87 204.465 156.254C206.623 162.106 208.454 165.559 208.763 172.753C208.896 175.843 227.362 177.225 225.546 180.357C223.307 184.221 201.603 188.623 191.715 189.402C181.163 189.216 172.474 190.053 161.11 185.25Z" fill="#DCCFFF"/>
<path d="M223.056 133.894C222.754 133.573 222.582 133.031 221.847 133.099C221.714 133.543 221.892 133.979 222.001 134.415C222.563 136.674 223.149 138.926 223.682 141.19C225.403 148.513 227.117 151.919 230.869 158.423C231.806 160.68 232.71 162.931 232.597 165.402C233.559 170.756 230.663 177.158 227.154 179.8C221.638 183.952 216.289 185.318 209.159 186.603C208.525 184.258 208.339 181.228 205.984 177.352C203.441 170.271 200.226 163.458 197.559 156.431C195.708 151.552 194.76 146.451 194.243 141.253C193.63 135.114 193.259 128.966 193.743 122.823C194.168 117.434 194.433 112.039 194.788 106.647C195.041 102.81 194.822 98.9818 194.247 95.1971C193.84 92.5152 191.599 88.498 190.5 86.0001C198.184 84.9852 207.398 86.0125 214.959 88.0935C215.706 88.2989 216.429 88.5441 217.14 88.8138C219.809 90.3487 222.179 92.3837 224.164 95.0612C225.303 96.5975 226.533 98.1274 228.145 99.2059C232.304 101.984 235.469 105.588 237.631 110.083C238.744 112.397 240.514 113.872 243.13 114.249C246.942 114.8 249.964 116.639 252.17 119.796C252.484 120.245 252.872 120.64 253.213 121.069C254.61 122.824 256.37 124.069 258.407 125.021C260.805 126.142 263.381 126.607 265.903 127.271C267.984 127.82 269.997 128.498 271.622 129.978C277.278 135.132 279.056 141.48 277.287 148.826C276.348 152.724 274.088 156.207 271.203 158.966C266.854 163.124 261.551 165.501 255.483 165.263C249.463 165.027 245.214 162.142 242.917 156.546C242.033 154.393 240.96 152.32 240.239 150.098C240.007 149.386 239.637 148.744 238.825 148.443C235.689 147.282 233.434 144.954 231.211 142.61C228.475 139.722 225.783 136.792 223.056 133.894Z" fill="#DCCFFF"/>
<path fill-rule="evenodd" clip-rule="evenodd" d="M81.9728 66.0531C79.6099 66.8446 77.4124 67.9521 75.5684 69.587C71.367 73.3114 70.4392 78.3539 72.9806 83.1441C73.861 84.8019 74.9838 86.3076 76.1223 87.7988C79.7328 92.5276 82.0153 97.8799 83.9773 103.389C84.5071 104.878 85.0834 106.351 85.6593 107.822C85.7613 108.083 85.8634 108.344 85.9652 108.605C87.3865 112.251 90.195 114.495 93.9468 115.81C98.9408 117.562 104.175 118.018 109.458 117.929C112.663 117.876 115.868 117.765 119.073 117.654C121.982 117.553 124.892 117.452 127.802 117.394C128.159 120.722 128.209 124.069 128.26 127.455C128.267 127.979 128.275 128.503 128.284 129.028C128.55 130.995 128.74 132.974 128.93 134.951C129.455 140.417 129.979 145.869 132.085 151.033C135.166 158.587 139.538 166.309 144.603 172.726C144.605 172.728 144.608 172.731 144.61 172.733C144.614 172.738 144.618 172.742 144.622 172.747C144.575 172.613 144.533 172.478 144.5 172.341C144.408 171.954 144.266 171.58 144.123 171.203C143.933 170.704 143.742 170.2 143.663 169.655C143.041 165.391 143.163 161.16 144.363 157.017C146.23 150.571 148.185 144.151 150.145 137.731C152.329 130.575 153.005 123.292 152.01 115.883C150.834 107.111 151.454 98.5405 154.687 90.2345C155.751 87.4986 156.83 84.7682 157.909 82.0379C158.393 80.8127 158.877 79.5875 159.36 78.3619C159.269 78.2867 159.181 78.2028 159.093 78.1189C158.902 77.9366 158.711 77.7544 158.483 77.6615C151.725 74.0441 144.394 73.9862 137.925 75.878C135.947 76.2573 133.98 76.6899 132.012 77.1226C130.058 77.5522 128.104 77.9818 126.139 78.3594C125.054 78.5685 122.165 79.0314 119.539 79.4522C117.47 79.7839 115.563 80.0894 114.829 80.2243C112.664 80.6218 112.519 80.5564 112.53 78.4223C112.534 77.5873 112.564 76.752 112.594 75.9169C112.631 74.8878 112.668 73.8587 112.657 72.8305C112.605 67.9444 110.201 64.8666 105.336 63.3112C102.063 62.2649 98.6786 62.2939 95.2716 62.5159C95.2716 62.5159 86.271 64.3138 81.9728 66.0531Z" fill="#DCCFFF"/>
<path d="M80.9874 72.7137C80.6386 69.8824 100.506 67.3412 101.089 70.382C102.778 79.1882 82.0275 81.1563 80.9874 72.7137Z" fill="#CABDF3"/>
<path d="M252.241 157.18C253.398 159.238 267.886 151.18 266.783 148.867C263.586 142.169 248.79 151.042 252.241 157.18Z" fill="#CABDF3"/>
<path d="M84.8946 68.9693C83.4187 73.9468 83.3496 74.7375 86.2626 74.9015C89.7592 75.0983 90.3185 75.0414 93.1143 74.7557C96.4698 74.4128 97.5413 74.1186 97.9362 72.2271C98.5274 70.6656 98.9111 69.0252 99.3882 67.4198C100.771 61.9811 101.79 56.441 103.844 51.186C104.246 50.1565 104.84 49.5883 105.968 49.1569C108.714 48.1081 110.721 46.1085 111.952 43.483C112.659 41.9782 112.578 40.419 110.969 39.4031C109.986 38.7827 109.884 37.9848 110.138 37.1176C110.492 35.9186 110.007 35.1158 109.141 34.3508C106.984 32.4441 104.852 30.5102 102.708 28.5891C101.953 27.9136 101.011 27.5632 100.085 27.2328C98.0308 26.5038 96.1093 27.4661 95.2071 29.6622C94.4646 31.4728 94.3964 33.4249 94.195 35.3393C93.8519 38.6173 93.5855 41.9033 93.2624 45.1844C93.1996 45.8199 93.1438 46.4945 92.8904 47.0656C90.6458 52.146 85.3945 67.2833 84.8946 68.9693Z" fill="#FFB599"/>
<path d="M119.925 28.1924C113.555 28.1521 101.988 28.9861 95.8982 29.5955C94.4735 29.6545 92.7876 30.3357 92.4502 31.7401L91.6488 37.3635C91.2083 39.2054 92.4377 41.0018 94.2907 41.2214L118.762 44.1162C120.443 44.3159 121.999 43.1327 122.285 41.4409L122.444 31.6564C122.769 29.7396 121.845 28.2047 119.925 28.1924Z" fill="#002E31"/>
<path d="M120.551 43.8229C119.799 42.8679 118.891 28.583 119.977 28.3076C125.435 26.9238 125.643 43.2288 120.551 43.8229Z" fill="#627475"/>
<path d="M112.706 40.5837C112.01 38.1225 109.631 36.5348 108.286 34.353C107.999 33.89 107.754 33.3893 107.366 33.0046C106.979 32.619 106.396 32.3639 105.876 32.5359C105.656 32.6088 105.466 32.7508 105.3 32.9118C104.201 33.9803 104.227 35.8206 104.951 37.1722C105.675 38.5229 106.943 39.4935 108.185 40.3997C106.989 39.5273 103.49 43.4503 103.227 44.4096C102.79 45.9994 103.767 47.6703 105.187 48.4207C109.375 50.636 113.75 44.2665 112.706 40.5837Z" fill="#FFB599"/>
<path d="M262.995 149.213C263.818 149.882 264.66 150.53 265.465 151.22C266.988 152.527 268.478 153.871 269.982 155.2C270.436 155.721 272.644 157.845 273.524 157.832C274.323 157.82 280.949 157.366 283.454 157.303C286.032 157.239 288.594 157.386 291.12 156.714C291.836 156.525 292.928 156.341 293.201 156.924C293.928 158.48 290.731 159.751 289.644 159.977C289.434 160.022 289.209 160.138 289.215 160.429C289.222 160.716 289.449 160.815 289.662 160.88C289.934 160.962 290.221 160.993 290.501 161.051C291.625 161.285 292.751 161.504 293.868 161.762C294.313 161.865 294.808 162.014 294.891 162.56C294.985 163.166 294.554 163.504 294.101 163.777C293.35 164.231 292.515 164.402 291.65 164.506C289.522 164.759 287.418 164.541 285.31 164.252C284.652 164.161 283.967 163.881 283.32 164.272C283.319 164.567 283.506 164.683 283.708 164.809C285.227 165.756 286.794 166.589 288.544 167.037C289.134 167.189 289.575 167.602 289.506 168.295C289.443 168.926 288.94 169.1 288.416 169.219C287.229 169.486 286.064 169.617 284.865 169.16C283.202 168.528 281.458 168.099 279.943 167.107C279.585 166.872 279.215 166.813 278.796 166.881C277.834 167.036 276.865 167.144 275.905 167.311C275.057 167.459 274.993 167.63 275.423 168.482C275.969 169.563 276.515 170.645 277.099 171.705C277.504 172.439 277.586 173.244 277.711 174.037C277.799 174.597 277.602 175.094 277.037 175.29C276.526 175.467 276.156 175.157 275.885 174.747C275.662 174.411 275.446 174.065 275.268 173.704C274.877 172.909 274.318 172.261 273.647 171.697C272.588 170.807 271.57 169.861 270.463 169.037C268.414 167.513 267.124 165.559 266.809 163C266.735 162.404 266.58 161.863 266.101 161.472C265.432 160.928 264.898 160.223 264.121 159.809C262.189 157.815 259.916 156.263 257.66 154.682C256.677 153.994 255.706 153.273 254.812 152.474C257.293 150.116 260.2 149.339 262.995 149.213Z" fill="#FFB599"/>
<path d="M173.846 16.2608C173.846 16.2608 166.71 12.1505 159.738 17.3733C152.765 22.5949 156.773 27.0401 150.879 29.3519C144.986 31.6638 148.137 40.2317 141.231 43.2013C134.323 46.1708 137.583 55.7579 144.115 57.7967C144.115 57.7967 146.374 66.5965 153.501 66.5679C153.501 66.5679 159.201 74.5167 172.399 71.3433L177.284 69.9517L173.846 16.2608Z" fill="#ED6337"/>
<path d="M199.263 21.6247C199.263 21.6247 207.58 23.6537 208.375 31.3169C209.17 38.9791 208.773 37.1444 212.978 41.4691C217.182 45.7938 210.84 49.4484 214.091 53.6678C215.751 55.8225 216.456 57.5115 216.43 59.3643C216.382 62.6285 213.822 65.2565 210.596 65.7961C208.396 66.1641 206.427 67.9845 204.85 70.5845C201.721 75.7448 192.982 72.3788 192.982 72.3788C192.982 72.3788 183.92 76.3772 179.121 72.1239C174.323 67.8715 187.861 18.1509 187.861 18.1509L199.263 21.6247Z" fill="#ED6337"/>
<path d="M166.425 15.8601C166.425 15.8601 170.723 8.39237 183.026 9.76366C195.328 11.1348 197.788 23.6013 197.788 23.6013L178.792 31.3383L166.425 15.8601Z" fill="#ED6337"/>
<path d="M190.295 46.7533C188.857 49.1898 187.448 52.8851 190.826 54.5298C193.181 55.6767 196.444 52.7363 197.883 50.2987C199.321 47.8622 198.87 45.5534 196.532 44.3659C194.197 43.1787 191.733 44.3168 190.295 46.7533Z" fill="#FFB599"/>
<path d="M155.04 29.5536C153.899 39.7078 162.072 48.9544 173.296 50.2054C184.519 51.4562 195.779 43.9565 196.92 33.8022C198.061 23.648 188.65 14.6838 177.428 13.4329C166.204 12.1819 156.181 19.3994 155.04 29.5536Z" fill="#ED6337"/>
<path d="M180 59.8653C180 59.8653 178.65 67.324 178.616 72.18C178.582 77.0359 183.742 84.7045 183.742 84.7045L161.72 81.5933C161.72 81.5933 166.196 75.7289 167.263 70.9145C168.332 66.0918 165.51 61.9185 165.51 61.9185L180 59.8653Z" fill="#FFB599"/>
<path d="M177.775 17.7333C186.743 18.7328 193.837 26.9529 192.821 36.0039L191.084 46.8087C191.084 46.8087 189.167 62.1885 174.824 65.3333C173.234 65.6814 168.833 64.3283 167.359 63.6387C156.244 62.4666 158.344 43.1596 158.344 43.1596L159.048 32.2396C160.065 23.1886 168.809 16.7339 177.775 17.7333Z" fill="#FFB599"/>
<path d="M176.749 53.0733L168.195 52.1181C168.195 52.1181 168.178 54.8972 172.164 55.3423C175.699 55.737 176.749 53.0733 176.749 53.0733Z" fill="white"/>
<path d="M165.915 15.8025C165.915 15.8025 165.786 24.484 175.333 26.9263C185.066 29.4171 182.275 34.9455 194.442 34.9016C194.442 34.9016 199.489 29.1102 193.779 21.916C190 17.1542 182.078 12.651 176.049 12.5835C174.021 12.5622 168.865 15.5465 165.915 15.8025Z" fill="#ED6337"/>
<path d="M167.106 16.5438C167.106 16.5438 172.566 23.4153 154.243 32.7197C154.243 32.7197 153.896 29.1157 156.146 25.7152C158.396 22.3148 167.106 16.5438 167.106 16.5438Z" fill="#ED6337"/>
<path d="M193.851 85.7891L173.213 74.2006L159.969 78.2411C159.969 78.2411 150.364 94.8898 167.04 94.8858C188.266 94.8806 193.851 85.7891 193.851 85.7891Z" fill="#FFB599"/>
</g>
<path d="M95.242 35.7307C95.242 35.7307 67.5135 26.3227 50.3488 34.0413C12.9368 50.8645 -5.04 110.603 2.81428 142.996C9.85516 172.034 34.2524 189.832 62.2319 177.369C70.5944 173.644 78.8389 152.259 72.7956 142.996C66.7522 133.733 51.8411 135.566 48.5882 145.643C38.9048 175.638 97.5899 204.591 132.213 180.932C147.17 170.711 134.853 145.643 153.339 145.643C166.983 145.643 167.84 183.295 192.951 170.711C210.557 161.889 222 206 222 206" stroke="#002E31" stroke-width="1.51625"/>
</g>
<defs>
<linearGradient id="paint0_linear" x1="156.276" y1="196.75" x2="156.276" y2="-47.081" gradientUnits="userSpaceOnUse">
<stop stop-color="#DBA2FF"/>
<stop offset="1" stop-color="#EAAFFF"/>
</linearGradient>
<clipPath id="clip0">
<rect width="255" height="188" fill="white"/>
</clipPath>
</defs>
</svg>
