<svg width="180" height="180" viewBox="0 0 180 180" fill="none" xmlns="http://www.w3.org/2000/svg">
<g clip-path="url(#clip0)">
<path d="M78.739 158.518C78.1515 131.199 66.4014 105.642 64.9327 78.3234C64.6389 70.3921 65.5202 62.4607 69.0452 56.292C71.101 67.4545 74.9198 78.0296 82.2641 85.9609C89.9011 94.4802 104.001 95.361 113.989 90.0735C123.389 85.0797 123.683 72.4483 121.333 63.6358C116.339 42.7789 91.3704 28.6792 73.7457 40.4288C72.8645 27.5038 73.7457 14.5787 73.1577 1.94731C72.8645 -0.696458 69.0457 -0.696458 69.0457 2.24106C68.1644 15.1662 66.9894 30.735 67.8707 46.0101C67.2827 46.8914 66.4014 47.7727 65.8144 48.6539C44.0768 79.7916 71.3957 125.323 72.277 158.811C72.5707 162.63 79.0328 162.63 78.739 158.518ZM85.7896 43.0726C97.8329 39.8413 108.114 50.4164 113.109 60.1103C118.102 69.8041 118.102 83.6104 105.471 86.8417C90.7833 90.6605 81.9713 78.0291 78.152 65.9853C76.3895 60.404 75.2145 55.1165 74.627 49.5352C77.5645 46.3044 81.0895 44.2481 85.7896 43.0726Z" fill="black"/>
<path d="M78.4457 178.492C81.0895 174.38 83.7333 170.562 86.3766 166.743C88.7266 163.511 91.3703 160.28 92.2516 156.461C93.1329 153.524 88.7266 150.586 86.6708 153.23C84.3208 156.461 82.2645 159.986 80.2082 163.218C78.739 165.568 76.977 167.918 75.5082 169.974C74.3332 167.624 73.452 165.274 72.2769 162.924C71.3957 161.161 70.5144 159.105 69.6332 157.343C69.3394 156.755 68.7519 156.168 68.1644 155.873C66.9894 154.992 67.5764 155.58 67.8707 155.873C66.9894 154.699 64.0519 154.699 64.3456 156.755C64.0519 157.343 64.0519 157.93 64.0519 158.811C64.6394 160.867 65.5206 163.218 66.4019 165.274C68.1649 169.68 69.9274 174.086 72.2769 178.199C74.039 180.549 77.2707 180.549 78.4457 178.492Z" fill="black"/>
</g>
<defs>
<clipPath id="clip0">
<rect width="180" height="180" fill="white" transform="translate(180) rotate(90)"/>
</clipPath>
</defs>
</svg>
