<svg width="111" height="38" viewBox="0 0 111 38" fill="none" xmlns="http://www.w3.org/2000/svg">
<rect y="11.7617" width="5.9999" height="14.4762" rx="2.99995" fill="#007AFF"/>
<rect x="7.99951" y="4.52405" width="5.9999" height="28.9524" rx="2.99995" fill="#007AFF"/>
<rect x="16.0001" y="8.14319" width="5.9999" height="21.7143" rx="2.99995" fill="#007AFF"/>
<rect x="23.9995" width="5.9999" height="38" rx="2.99995" fill="#007AFF"/>
<rect x="32.0001" y="11.7617" width="5.9999" height="14.4762" rx="2.99995" fill="#007AFF"/>
<path d="M59.159 21.9333C59.159 21.992 59.1322 22.4027 59.0788 23.1653H48.1975C48.3935 24.1431 48.8569 24.9156 49.5877 25.4827C50.3185 26.0498 51.2275 26.3333 52.3147 26.3333C53.0633 26.3333 53.7228 26.216 54.2931 25.9813C54.8813 25.7271 55.4249 25.336 55.924 24.808L58.143 27.448C56.7884 29.1493 54.81 30 52.2078 30C50.5858 30 49.151 29.6578 47.9034 28.9733C46.6557 28.2693 45.6932 27.3013 45.0159 26.0693C44.3386 24.8373 44 23.4391 44 21.8747C44 20.3298 44.3297 18.9413 44.9892 17.7093C45.6665 16.4578 46.5844 15.4898 47.743 14.8053C48.9193 14.1013 50.2294 13.7493 51.6731 13.7493C53.0811 13.7493 54.3555 14.0818 55.4962 14.7467C56.6369 15.4116 57.5281 16.3698 58.1698 17.6213C58.8292 18.8533 59.159 20.2907 59.159 21.9333ZM51.6998 17.2107C50.7551 17.2107 49.962 17.504 49.3203 18.0907C48.6787 18.6773 48.2866 19.4791 48.144 20.496H55.2289C55.0863 19.4987 54.6942 18.7067 54.0525 18.12C53.4109 17.5138 52.6266 17.2107 51.6998 17.2107Z" fill="black"/>
<path d="M68.8869 30C67.3541 30 65.9728 29.6578 64.7429 28.9733C63.5309 28.2693 62.5774 27.3013 61.8822 26.0693C61.2049 24.8373 60.8663 23.4391 60.8663 21.8747C60.8663 20.3102 61.2049 18.912 61.8822 17.68C62.5774 16.448 63.5309 15.4898 64.7429 14.8053C65.9728 14.1013 67.3541 13.7493 68.8869 13.7493C70.4019 13.7493 71.7209 14.1013 72.8438 14.8053C73.9845 15.4898 74.8133 16.4773 75.3301 17.768L72.0952 19.6747C71.3466 18.2276 70.2682 17.504 68.8602 17.504C67.7729 17.504 66.8728 17.8951 66.1599 18.6773C65.447 19.4596 65.0905 20.5253 65.0905 21.8747C65.0905 23.224 65.447 24.2898 66.1599 25.072C66.8728 25.8542 67.7729 26.2453 68.8602 26.2453C70.2861 26.2453 71.3644 25.5218 72.0952 24.0747L75.3301 26.0107C74.8133 27.2622 73.9845 28.24 72.8438 28.944C71.7209 29.648 70.4019 30 68.8869 30Z" fill="black"/>
<path d="M86.3696 13.7493C88.1519 13.7493 89.5867 14.336 90.674 15.5093C91.779 16.6827 92.3316 18.4231 92.3316 20.7307V29.7653H88.1609V21.4347C88.1609 20.1831 87.9113 19.2542 87.4123 18.648C86.9132 18.0222 86.1913 17.7093 85.2467 17.7093C84.1951 17.7093 83.3574 18.0711 82.7336 18.7947C82.1097 19.4987 81.7978 20.5547 81.7978 21.9627V29.7653H77.6271V8H81.7978V15.6267C82.3504 15.0204 83.0187 14.5609 83.803 14.248C84.5872 13.9156 85.4427 13.7493 86.3696 13.7493Z" fill="black"/>
<path d="M103.113 30C101.598 30 100.235 29.6578 99.0225 28.9733C97.8284 28.2693 96.8926 27.3013 96.2153 26.0693C95.538 24.8373 95.1994 23.4391 95.1994 21.8747C95.1994 20.3102 95.538 18.912 96.2153 17.68C96.8926 16.448 97.8284 15.4898 99.0225 14.8053C100.235 14.1013 101.598 13.7493 103.113 13.7493C104.628 13.7493 105.983 14.1013 107.177 14.8053C108.371 15.4898 109.307 16.448 109.984 17.68C110.661 18.912 111 20.3102 111 21.8747C111 23.4391 110.661 24.8373 109.984 26.0693C109.307 27.3013 108.371 28.2693 107.177 28.9733C105.983 29.6578 104.628 30 103.113 30ZM103.113 26.2453C104.182 26.2453 105.056 25.8542 105.733 25.072C106.428 24.2702 106.776 23.2044 106.776 21.8747C106.776 20.5449 106.428 19.4889 105.733 18.7067C105.056 17.9049 104.182 17.504 103.113 17.504C102.044 17.504 101.161 17.9049 100.466 18.7067C99.7711 19.4889 99.4236 20.5449 99.4236 21.8747C99.4236 23.2044 99.7711 24.2702 100.466 25.072C101.161 25.8542 102.044 26.2453 103.113 26.2453Z" fill="black"/>
</svg>
