<svg width="196" height="84" viewBox="0 0 196 84" fill="none" xmlns="http://www.w3.org/2000/svg">
<g clip-path="url(#clip0_903_2146)">
<path d="M135.746 57.9597C135.771 57.9096 135.793 57.8584 135.81 57.8059C140.787 46.3193 139.898 32.2373 133.434 21.4741C136.885 17.3488 132.402 11.4412 127.501 13.727C126.639 12.8467 125.735 12.003 124.798 11.2053C126.637 6.20437 120.497 2.1019 116.674 5.83834C105.56 0.226301 91.7365 0.297373 80.684 6.02825C76.7522 1.86161 70.1491 6.32911 72.5296 11.5569C71.1663 12.749 69.8758 14.0369 68.686 15.3987C67.6587 16.5746 69.5198 18.1863 70.5401 17.0186C71.647 15.7518 72.8464 14.5534 74.1132 13.4428C76.563 15.2098 80.1151 14.3097 81.459 11.6125C85.8942 12.8892 90.1296 14.7215 94.0763 17.0731C93.7459 18.2646 93.8808 19.5952 94.4478 20.6951C91.1995 23.501 88.2742 26.6751 85.734 30.1537C83.389 29.4451 80.8041 30.6312 79.7843 32.852C74.6128 32.8797 69.4253 33.436 64.3321 34.5126C63.8823 33.6745 63.2005 32.98 62.3739 32.5148C63.3308 28.7832 64.8465 25.2334 66.888 21.9511C67.7015 20.6429 65.6481 19.283 64.7974 20.6506C62.6268 24.1402 61.0147 27.9139 59.9951 31.8808C54.0976 31.9809 53.1075 40.1395 58.7218 41.709C58.6391 53.3205 63.6594 64.6095 72.365 72.2997C70.549 77.2053 76.4446 81.2516 80.3353 77.7916C91.6901 83.8294 106.04 83.8302 117.396 77.7936C121.353 81.7073 127.691 77.335 125.462 72.2186C129.949 68.2312 133.434 63.3542 135.746 57.9597ZM134.195 55.2064C130.788 51.8209 127.059 48.7497 123.077 46.0537C123.642 44.2825 123.151 42.2897 121.831 40.9822C125.179 35.4155 127.807 29.4464 129.657 23.211C130.274 23.2132 130.866 23.0994 131.412 22.8936C137.082 32.4682 138.118 44.813 134.195 55.2064ZM77.5471 69.1227C76.5111 58.9748 78.3291 48.851 82.8286 39.7021C85.6239 40.5743 88.6452 38.7362 89.188 35.8669C97.6763 36.9132 105.852 39.4053 113.524 43.2864C113.155 44.7206 113.46 46.3021 114.339 47.4952C105.691 58.4512 94.2759 66.6954 81.2112 71.4204C80.4195 70.1669 79.0882 69.2899 77.5471 69.1227ZM115.829 44.5338C115.829 43.1388 116.955 42.004 118.34 42.004C121.672 42.1427 121.671 46.9255 118.34 47.0637C116.955 47.0637 115.829 45.9288 115.829 44.5338ZM132.179 18.2193C132.179 19.6143 131.053 20.7491 129.668 20.7491C126.336 20.6104 126.337 15.8276 129.668 15.6894C131.053 15.6894 132.179 16.8242 132.179 18.2193ZM125.619 15.3252C123.918 17.7158 124.708 21.1718 127.273 22.5927C125.48 28.6074 122.94 34.365 119.707 39.7354C119.032 39.5411 118.281 39.4928 117.587 39.5992C114.208 32.3845 109.292 25.8861 103.286 20.6954C103.854 19.5949 103.989 18.2665 103.658 17.0734C107.459 14.8086 111.531 13.0238 115.789 11.755C117.204 14.4873 121.001 15.2587 123.358 13.2134C124.139 13.8854 124.895 14.5913 125.619 15.3252ZM96.3557 18.4098C96.3557 17.0148 97.4823 15.88 98.8672 15.88C102.199 16.0187 102.198 20.8013 98.8672 20.9395C97.4823 20.9395 96.3557 19.8047 96.3557 18.4098ZM120.167 6.85796C121.552 6.85796 122.678 7.99281 122.678 9.38782C122.54 12.7439 117.793 12.7431 117.655 9.38782C117.655 7.99281 118.782 6.85796 120.167 6.85796ZM77.0084 11.9175C75.6236 11.9175 74.497 10.7827 74.497 9.38766C74.6352 6.03136 79.3824 6.03251 79.5201 9.38766C79.5201 10.7827 78.3933 11.9175 77.0084 11.9175ZM81.9774 9.1989C81.9646 8.85716 81.9176 8.52445 81.8395 8.2034C92.1446 2.87434 105.018 2.78144 115.403 7.95555C115.269 8.40184 115.196 8.87374 115.194 9.36238C110.715 10.6873 106.433 12.5588 102.435 14.9367C100.513 12.9488 97.2222 12.9481 95.2998 14.9365C91.1335 12.4583 86.6612 10.532 81.9774 9.1989ZM96.0776 22.5403C97.7423 23.6765 99.9915 23.6767 101.656 22.5405C107.39 27.4911 112.087 33.6881 115.322 40.5696C115.103 40.7381 114.898 40.9248 114.71 41.1268C106.621 37.0242 97.9895 34.4157 89.0237 33.3662C88.7816 32.6335 88.3751 31.9757 87.8476 31.4371C90.2539 28.1683 93.0153 25.1828 96.0776 22.5403ZM84.3027 32.4042C85.6876 32.4042 86.8142 33.5391 86.8142 34.9341C86.676 38.2904 81.9288 38.2894 81.7911 34.9341C81.7913 33.5391 82.9179 32.4042 84.3027 32.4042ZM57.4386 36.8717C57.4386 35.4767 58.5652 34.3419 59.9501 34.3419C63.2818 34.4806 63.2808 39.2632 59.9501 39.4014C58.5654 39.4016 57.4386 38.2667 57.4386 36.8717ZM61.1837 41.708C61.1837 41.708 64.923 40.8926 64.923 36.9042C64.923 36.9042 74.5178 35.3705 79.3453 35.3167C79.4359 36.5093 79.9452 37.5856 80.7263 38.3977C75.9289 48.0492 73.9939 58.7496 75.1077 69.4724C74.6281 69.6724 74.1866 69.9457 73.7963 70.2779C65.7648 63.0831 61.1837 51.0281 61.1837 41.708ZM77.0084 76.6144C75.6236 76.6144 74.497 75.4796 74.497 74.0846C74.497 72.6895 75.6236 71.5547 77.0084 71.5547C78.3747 71.5547 79.5201 72.7381 79.5201 74.0846C79.5201 75.4796 78.3933 76.6144 77.0084 76.6144ZM98.8672 79.877C92.8924 79.877 86.9841 78.446 81.7034 75.7294C81.9178 75.115 82.0123 74.4151 81.9707 73.7632C95.4854 68.8917 107.295 60.3784 116.242 49.0583C116.977 49.403 117.792 49.5612 118.603 49.5187C119.15 51.5486 119.582 53.6195 119.888 55.6903C120.123 57.2755 122.559 56.9213 122.324 55.3302C121.999 53.1314 121.538 50.9323 120.954 48.7784C121.248 48.5953 121.521 48.3817 121.771 48.1429C125.879 50.9318 129.709 54.1333 133.178 57.6765C131.027 62.4334 127.895 66.7405 123.915 70.2995C123.522 70.0041 123.083 69.7664 122.612 69.5974C122.854 67.3088 122.96 64.998 122.924 62.7126C122.899 61.1044 120.437 61.1421 120.462 62.7507C120.497 64.9475 120.395 67.1688 120.161 69.3687C117.258 69.8304 115.359 72.841 116.159 75.6626C110.845 78.4224 104.891 79.877 98.8672 79.877ZM120.942 76.8284C119.557 76.8284 118.431 75.6936 118.431 74.2986C118.569 70.9423 123.316 70.9435 123.454 74.2986C123.454 75.6936 122.327 76.8284 120.942 76.8284Z" fill="#596069"/>
</g>
<path d="M50.3763 52.3583V64.0917H43.5013V75H30.7596V64.0917H0.417969V52.3583L21.7763 10.8333H35.343L14.0763 52.3583H30.7596V37.1417H43.5013V52.3583H50.3763Z" fill="#596069"/>
<path d="M195.217 52.3583V64.0917H188.342V75H175.6V64.0917H145.258V52.3583L166.617 10.8333H180.183L158.917 52.3583H175.6V37.1417H188.342V52.3583H195.217Z" fill="#596069"/>
<defs>
<clipPath id="clip0_903_2146">
<rect width="84" height="84" fill="white" transform="translate(55)"/>
</clipPath>
</defs>
</svg>
