<svg width="83" height="31" viewBox="0 0 83 31" fill="none" xmlns="http://www.w3.org/2000/svg">
<g clip-path="url(#clip0_1238_458)">
<path d="M35.3526 10.0262C35.3526 10.9692 35.0657 11.721 34.4918 12.2814C33.9179 12.8385 33.1461 13.117 32.1762 13.117C31.1225 13.117 30.2902 12.7764 29.6794 12.0951C29.0687 11.4105 28.7633 10.4793 28.7633 9.30135C28.7633 8.1402 29.0703 7.21565 29.6845 6.52769C30.2986 5.83637 31.1225 5.49071 32.1561 5.49071C32.9951 5.49071 33.6981 5.7122 34.2653 6.15518C34.8324 6.59816 35.1747 7.19048 35.2922 7.93214H33.9985C33.8676 7.51936 33.6428 7.20223 33.324 6.98074C33.0085 6.75925 32.6192 6.6485 32.1561 6.6485C31.5218 6.6485 31.0184 6.88509 30.6459 7.35828C30.2768 7.83146 30.0922 8.47579 30.0922 9.29128C30.0922 10.1168 30.2801 10.7679 30.656 11.2444C31.0352 11.721 31.5487 11.9592 32.1964 11.9592C32.7501 11.9592 33.1998 11.8049 33.5454 11.4961C33.8911 11.1874 34.069 10.783 34.079 10.2829L34.0841 10.1319H32.3373V9.11509H35.3526V10.0262ZM41.4939 11.7981V12.9358H36.8628V5.67193H38.1615V11.7981H41.4939ZM45.7878 5.49071C46.8415 5.49071 47.6755 5.83302 48.2896 6.51762C48.9071 7.20223 49.2158 8.13013 49.2158 9.30135C49.2158 10.4726 48.9088 11.4021 48.2946 12.0901C47.6805 12.7747 46.8449 13.117 45.7878 13.117C44.724 13.117 43.8833 12.7747 43.2658 12.0901C42.6517 11.4055 42.3446 10.4759 42.3446 9.30135C42.3446 8.13013 42.6534 7.20223 43.2709 6.51762C43.8917 5.83302 44.7307 5.49071 45.7878 5.49071ZM45.7878 6.64347C45.1401 6.64347 44.625 6.88342 44.2424 7.36331C43.8632 7.8432 43.6736 8.48922 43.6736 9.30135C43.6736 10.1168 43.8615 10.7645 44.2374 11.2444C44.6166 11.7243 45.1334 11.9643 45.7878 11.9643C46.4321 11.9643 46.9422 11.7243 47.3181 11.2444C47.6973 10.7612 47.8869 10.1135 47.8869 9.30135C47.8869 8.48922 47.6973 7.8432 47.3181 7.36331C46.9422 6.88342 46.4321 6.64347 45.7878 6.64347ZM53.8118 12.9358H50.7059V5.67193H53.7413C54.4292 5.67193 54.9695 5.83469 55.3622 6.16022C55.7548 6.48238 55.9511 6.92369 55.9511 7.48412C55.9511 7.8667 55.827 8.20732 55.5786 8.506C55.3303 8.80467 55.0232 8.98253 54.6574 9.03958V9.13019C55.1474 9.17718 55.5451 9.36175 55.8505 9.68392C56.1559 10.0027 56.3086 10.3987 56.3086 10.8719C56.3086 11.5095 56.0854 12.0129 55.639 12.3821C55.1961 12.7512 54.587 12.9358 53.8118 12.9358ZM52.0046 6.70387V8.72749H53.258C53.7178 8.72749 54.0668 8.64191 54.3051 8.47076C54.5467 8.29625 54.6675 8.04456 54.6675 7.71568C54.6675 7.39687 54.5584 7.14853 54.3403 6.97067C54.1222 6.79281 53.8168 6.70387 53.4242 6.70387H52.0046ZM52.0046 11.9039H53.5148C53.9947 11.9039 54.3588 11.8082 54.6071 11.6169C54.8554 11.4223 54.9796 11.1404 54.9796 10.7712C54.9796 10.4088 54.8504 10.1336 54.592 9.94568C54.337 9.75775 53.9611 9.66378 53.4644 9.66378H52.0046V11.9039ZM62.4096 12.9358L61.7955 11.0783H59.1225L58.4983 12.9358H57.1844L59.7618 5.67193H61.2216L63.804 12.9358H62.4096ZM60.4212 7.05624L59.4245 10.0514H61.4934L60.5068 7.05624H60.4212ZM69.6835 11.7981V12.9358H65.0524V5.67193H66.3511V11.7981H69.6835Z" fill="white"/>
<path d="M1.64716 14.6535H6.70988C7.96015 14.6535 8.97213 15.0404 9.74584 15.8141C10.5252 16.5822 10.9148 17.5942 10.9148 18.85C10.9148 20.0947 10.5139 21.1011 9.7122 21.8692C8.91046 22.6373 7.86764 23.0213 6.58374 23.0213H4.18693V26.7889H1.64716V14.6535ZM4.18693 16.7392V20.9609H6.02869C6.76315 20.9609 7.32941 20.7815 7.72748 20.4227C8.13115 20.0583 8.33299 19.5368 8.33299 18.8585C8.33299 18.1745 8.13395 17.6502 7.73589 17.2858C7.33782 16.9214 6.77156 16.7392 6.0371 16.7392H4.18693ZM12.4901 26.7889V13.9723H14.8954V19.0351H15.0467C15.2598 18.508 15.627 18.0932 16.1484 17.7904C16.6698 17.4877 17.2725 17.3363 17.9565 17.3363C18.9938 17.3363 19.7983 17.639 20.3702 18.2445C20.9476 18.85 21.2364 19.7078 21.2364 20.8179V26.7889H18.7891V21.3982C18.7891 20.7591 18.6321 20.2741 18.3182 19.9433C18.0098 19.6125 17.5613 19.4471 16.9726 19.4471C16.3615 19.4471 15.8681 19.6322 15.4925 20.0022C15.1224 20.3722 14.9374 20.86 14.9374 21.4655V26.7889H12.4901ZM26.3523 25.0902C26.9185 25.0902 27.3923 24.9304 27.7735 24.6108C28.1548 24.2912 28.3454 23.896 28.3454 23.425V22.7438L26.47 22.8615C25.4272 22.9344 24.9058 23.3073 24.9058 23.9801C24.9058 24.3221 25.0375 24.594 25.301 24.7958C25.5701 24.992 25.9206 25.0902 26.3523 25.0902ZM25.5449 26.9319C24.6479 26.9319 23.9162 26.6768 23.3499 26.1666C22.7893 25.6564 22.509 24.9808 22.509 24.1398C22.509 23.3045 22.8173 22.6485 23.434 22.1719C24.0564 21.6898 24.945 21.415 26.1 21.3478L28.3454 21.2132V20.4563C28.3454 20.0695 28.2108 19.7723 27.9417 19.5649C27.6726 19.3518 27.2858 19.2453 26.7812 19.2453C25.8729 19.2453 25.315 19.5312 25.1076 20.1031H22.8538C22.9323 19.2453 23.3359 18.5669 24.0648 18.0679C24.7992 17.5633 25.7496 17.311 26.9157 17.311C28.1379 17.311 29.0827 17.5858 29.7498 18.1352C30.4226 18.6847 30.759 19.4584 30.759 20.4563V26.7889H28.3874V25.5779H28.2361C27.995 26.004 27.6362 26.3376 27.1596 26.5787C26.683 26.8142 26.1448 26.9319 25.5449 26.9319ZM32.5614 26.7889V17.5129H34.933V18.993H35.0844C35.2077 18.5221 35.488 18.1324 35.9254 17.824C36.3627 17.5157 36.8673 17.3615 37.4391 17.3615C37.8484 17.3615 38.1624 17.4007 38.381 17.4792V19.7078C38.2857 19.6686 38.1147 19.635 37.868 19.6069C37.6269 19.5733 37.4167 19.5565 37.2373 19.5565C36.5701 19.5565 36.0319 19.7443 35.6226 20.1199C35.2133 20.4956 35.0087 21.0058 35.0087 21.6505V26.7889H32.5614ZM39.477 26.7889V17.5129H41.8486V19.0267H42C42.1906 18.494 42.513 18.0763 42.9671 17.7736C43.4268 17.4652 43.9595 17.311 44.565 17.311C45.2097 17.311 45.7507 17.4624 46.1881 17.7652C46.631 18.0623 46.9449 18.4828 47.13 19.0267H47.2813C47.5 18.5052 47.8588 18.0904 48.3578 17.782C48.8568 17.468 49.4287 17.311 50.0734 17.311C50.9985 17.311 51.7301 17.5914 52.2684 18.152C52.8066 18.7127 53.0757 19.4696 53.0757 20.4227V26.7889H50.6285V21.0702C50.6285 19.9714 50.1127 19.4219 49.081 19.4219C48.5877 19.4219 48.1924 19.5789 47.8953 19.8929C47.5981 20.2068 47.4495 20.6133 47.4495 21.1123V26.7889H45.0948V20.9693C45.0948 20.4816 44.9602 20.1031 44.6911 19.834C44.422 19.5593 44.0464 19.4219 43.5642 19.4219C43.0876 19.4219 42.6952 19.5901 42.3868 19.9265C42.0784 20.2629 41.9243 20.689 41.9243 21.2048V26.7889H39.477ZM58.2 25.0902C58.7663 25.0902 59.24 24.9304 59.6213 24.6108C60.0025 24.2912 60.1931 23.896 60.1931 23.425V22.7438L58.3177 22.8615C57.2749 22.9344 56.7535 23.3073 56.7535 23.9801C56.7535 24.3221 56.8853 24.594 57.1488 24.7958C57.4179 24.992 57.7683 25.0902 58.2 25.0902ZM57.3927 26.9319C56.4956 26.9319 55.764 26.6768 55.1977 26.1666C54.637 25.6564 54.3567 24.9808 54.3567 24.1398C54.3567 23.3045 54.6651 22.6485 55.2818 22.1719C55.9041 21.6898 56.7928 21.415 57.9477 21.3478L60.1931 21.2132V20.4563C60.1931 20.0695 60.0586 19.7723 59.7895 19.5649C59.5204 19.3518 59.1335 19.2453 58.6289 19.2453C57.7206 19.2453 57.1628 19.5312 56.9554 20.1031H54.7015C54.78 19.2453 55.1837 18.5669 55.9125 18.0679C56.647 17.5633 57.5973 17.311 58.7635 17.311C59.9857 17.311 60.9304 17.5858 61.5976 18.1352C62.2704 18.6847 62.6068 19.4584 62.6068 20.4563V26.7889H60.2352V25.5779H60.0838C59.8427 26.004 59.4839 26.3376 59.0074 26.5787C58.5308 26.8142 57.9926 26.9319 57.3927 26.9319ZM72.6172 20.7843H70.3297C70.2456 20.3302 70.0438 19.9742 69.7242 19.7163C69.4102 19.4528 68.9981 19.321 68.4879 19.321C67.8264 19.321 67.3162 19.5621 66.9574 20.0442C66.6041 20.5264 66.4275 21.2216 66.4275 22.1299C66.4275 23.0494 66.6041 23.7558 66.9574 24.2492C67.3162 24.7369 67.8264 24.9808 68.4879 24.9808C68.9925 24.9808 69.4018 24.8603 69.7158 24.6192C70.0354 24.3781 70.24 24.0305 70.3297 23.5764H72.6172C72.5163 24.6248 72.1014 25.4574 71.3725 26.0741C70.6437 26.6852 69.6821 26.9908 68.4879 26.9908C67.0415 26.9908 65.9229 26.5703 65.1324 25.7293C64.3475 24.8827 63.955 23.6829 63.955 22.1299C63.955 20.5881 64.3475 19.3995 65.1324 18.5641C65.9173 17.7287 67.0358 17.311 68.4879 17.311C69.699 17.311 70.6633 17.6222 71.3809 18.2445C72.1042 18.8669 72.5163 19.7135 72.6172 20.7843ZM75.084 30.1781C74.5625 30.1781 74.2514 30.1697 74.1505 30.1529V28.1766C74.2346 28.1934 74.4196 28.2018 74.7055 28.2018C75.1652 28.2018 75.5269 28.1205 75.7904 27.9579C76.0595 27.7953 76.2445 27.5374 76.3454 27.1842L76.4295 26.8478L73.1749 17.5129H75.8745L77.8256 24.5435H77.9769L79.928 17.5129H82.5183L79.3225 26.9319C78.9301 28.1261 78.4143 28.9643 77.7751 29.4465C77.1416 29.9342 76.2445 30.1781 75.084 30.1781Z" fill="white"/>
<mask id="mask0_1238_458" style="mask-type:alpha" maskUnits="userSpaceOnUse" x="1" y="1" width="26" height="26">
<path d="M18.6631 24.4182C18.6779 24.4117 18.6923 24.4044 18.706 24.396C21.9563 22.7766 24.3896 19.4853 24.9657 15.8892C26.5022 15.6184 26.611 13.47 25.0962 13.0615C25.0695 12.7052 25.0264 12.3491 24.9674 11.997C26.3099 11.2308 25.7137 9.17339 24.1671 9.28828C22.7491 5.96664 19.6681 3.4001 16.1447 2.60719C16.0505 0.94802 13.7506 0.70594 13.3022 2.31081C12.777 2.32069 12.25 2.36542 11.7316 2.44538C11.2839 2.51441 11.3959 3.21977 11.8404 3.15123C12.3227 3.07688 12.8128 3.03499 13.3014 3.02518C13.5149 3.87495 14.4714 4.33875 15.2735 3.99127C16.0193 5.10312 16.6169 6.30096 17.0535 7.56012C16.7576 7.76282 16.5389 8.08333 16.4593 8.43333C15.2142 8.44922 13.9721 8.60716 12.7585 8.9046C12.3705 8.30927 11.5753 8.08961 10.9341 8.39195C9.78124 7.43202 8.52608 6.58638 7.19466 5.87384C7.25142 5.60383 7.22984 5.32234 7.13329 5.06469C8.04277 4.41531 9.04227 3.91066 10.1085 3.56363C10.5334 3.42527 10.3318 2.7399 9.88748 2.88447C8.75389 3.25341 7.69115 3.78971 6.72382 4.47958C5.39632 3.4001 3.65249 5.02574 4.60525 6.42286C2.41775 8.98426 1.42297 12.4274 1.91834 15.7603C0.598905 16.5098 1.1514 18.5091 2.66121 18.4681C4.05317 21.9292 7.23772 24.6102 10.8855 25.3918C11.0325 26.9996 13.2559 27.2133 13.717 25.6614C15.4576 25.6147 17.1422 25.1835 18.6631 24.4182ZM18.8332 23.5175C18.7094 22.1296 18.4555 20.7513 18.0756 19.4092C18.5319 19.1218 18.7951 18.5878 18.7463 18.0509C20.5293 17.441 22.2277 16.6073 23.8031 15.5691C23.9395 15.6848 24.0923 15.7703 24.2519 15.8266C23.7214 19.0105 21.6454 21.9438 18.8332 23.5175ZM3.66188 16.0234C5.32768 13.5778 7.62237 11.6707 10.33 10.4809C10.7874 11.1966 11.8013 11.3531 12.4578 10.8177C14.1461 12.6357 15.4948 14.7159 16.4724 17.0104C16.1226 17.2598 15.895 17.6678 15.8671 18.0968C11.9013 18.9127 7.82784 18.6098 4.04578 17.2178C4.10427 16.7917 3.97265 16.3484 3.66188 16.0234ZM16.7509 17.7178C17.0115 17.4083 17.4735 17.3669 17.7808 17.6256C18.4943 18.2788 17.6006 19.34 16.8356 18.7485C16.5283 18.4898 16.4903 18.0274 16.7509 17.7178ZM25.2954 14.9325C25.0348 15.2421 24.5727 15.2835 24.2654 15.0248C23.5519 14.3716 24.4456 13.3103 25.2106 13.9019C25.5179 14.1606 25.556 14.6229 25.2954 14.9325ZM24.3802 13.0648C23.556 13.2775 23.0856 14.1919 23.3894 14.9865C21.8681 15.9865 20.2286 16.7896 18.5081 17.3776C18.3944 17.2082 18.2369 17.0574 18.0629 16.9512C18.6609 14.7189 18.7838 12.3584 18.4207 10.0846C18.7523 9.94631 19.0304 9.67678 19.1799 9.35019C20.4465 9.55769 21.6836 9.92224 22.8655 10.4361C22.6692 11.3068 23.3676 12.1872 24.2727 12.1736C24.3205 12.4686 24.3565 12.7666 24.3802 13.0648ZM17.3096 8.28259C17.5702 7.973 18.0323 7.93162 18.3396 8.19032C19.0531 8.84352 18.1594 9.90472 17.3944 9.31316C17.0871 9.05446 17.049 8.59214 17.3096 8.28259ZM24.7519 10.1671C25.0593 10.4258 25.0973 10.8882 24.8367 11.1978C24.179 11.9167 23.1257 11.0297 23.7219 10.2594C23.9825 9.9498 24.4446 9.90842 24.7519 10.1671ZM14.2288 3.22753C13.9215 2.96883 13.8835 2.50651 14.1441 2.19693C14.8017 1.4779 15.855 2.36498 15.2588 3.13529C14.9982 3.44488 14.5362 3.48623 14.2288 3.22753ZM15.8394 3.55245C15.9004 3.47422 15.9522 3.39162 15.9948 3.30577C19.2773 4.04821 22.1516 6.43256 23.4896 9.52075C23.3766 9.59486 23.2723 9.68594 23.1804 9.79392C21.939 9.25129 20.639 8.86661 19.3075 8.64743C19.2524 7.84728 18.5222 7.23238 17.7241 7.31452C17.2625 5.98625 16.6298 4.72329 15.8394 3.55245ZM16.4763 9.14731C16.6335 9.71043 17.1326 10.1306 17.7143 10.1895C18.0619 12.3593 17.9466 14.612 17.3791 16.7435C17.2989 16.74 17.2186 16.7431 17.1391 16.7528C16.1104 14.3313 14.6821 12.1399 12.8885 10.2321C12.9716 10.0242 13.0043 9.80232 12.9878 9.58426C14.1325 9.30835 15.3031 9.16166 16.4763 9.14731ZM12.0205 9.13666C12.3278 9.39536 12.3658 9.85768 12.1052 10.1673C11.4476 10.8863 10.3942 9.99925 10.9905 9.2289C11.2511 8.91934 11.7132 8.87796 12.0205 9.13666ZM5.22412 5.10962C5.48472 4.80004 5.94675 4.75866 6.25408 5.01736C6.96755 5.67053 6.07388 6.73173 5.30891 6.14019C5.00159 5.88156 4.96352 5.41921 5.22412 5.10962ZM5.15178 6.88255C5.15178 6.88255 6.13394 7.40011 6.87901 6.51499C6.87901 6.51499 9.29485 7.96704 10.3762 8.85691C10.1735 9.1385 10.0855 9.4725 10.1072 9.79866C7.2395 11.0443 4.81112 13.0575 3.05518 15.6453C2.9114 15.6 2.76236 15.5782 2.61367 15.579C2.17537 12.482 3.4107 8.95089 5.15178 6.88255ZM2.1428 17.5853C1.83548 17.3266 1.79745 16.8643 2.05805 16.5547C2.31865 16.2451 2.78068 16.2037 3.08801 16.4624C3.39122 16.7177 3.42432 17.1943 3.1728 17.4931C2.9122 17.8027 2.45013 17.844 2.1428 17.5853ZM6.3843 22.3928C5.05835 21.2766 4.01447 19.8553 3.35007 18.266C3.51241 18.1697 3.66414 18.032 3.77668 17.8796C7.68596 19.3232 11.8972 19.64 15.9974 18.7991C16.0961 19.0129 16.2476 19.2004 16.4353 19.3424C16.1775 19.895 15.8865 20.4353 15.5677 20.9521C15.3236 21.3477 15.9304 21.7242 16.1755 21.3272C16.5141 20.7785 16.8227 20.2044 17.0953 19.6173C17.1949 19.6316 17.2955 19.6353 17.3954 19.6288C17.7861 21.0152 18.0379 22.4411 18.146 23.8757C16.7799 24.5293 15.2802 24.9001 13.7323 24.9466C13.7001 24.8075 13.6472 24.6728 13.5743 24.5473C14.0555 24.0846 14.5105 23.5915 14.9296 23.0777C15.2245 22.7161 14.6711 22.2646 14.3762 22.6263C13.9734 23.1202 13.5358 23.5941 13.073 24.0387C12.3424 23.5987 11.3586 23.9121 11.009 24.6878C9.31419 24.3076 7.7211 23.5181 6.3843 22.3928ZM11.8527 25.8401C11.5454 25.5814 11.5074 25.119 11.768 24.8095C12.4256 24.0904 13.4789 24.9775 12.8827 25.7478C12.6221 26.0574 12.1601 26.0988 11.8527 25.8401Z" fill="black"/>
</mask>
<g mask="url(#mask0_1238_458)">
<rect x="-2.9444" y="-0.343018" width="29.6972" height="12.945" fill="white"/>
</g>
</g>
<defs>
<clipPath id="clip0_1238_458">
<rect width="83" height="29.6972" fill="white" transform="translate(0 0.651367)"/>
</clipPath>
</defs>
</svg>
