<svg width="109" height="39" viewBox="0 0 109 39" fill="none" xmlns="http://www.w3.org/2000/svg">
<g clip-path="url(#clip0_1210_1025)">
<path d="M46.4269 12.179C46.4269 13.4174 46.0501 14.4046 45.2965 15.1406C44.5428 15.8722 43.5292 16.238 42.2555 16.238C40.8717 16.238 39.7787 15.7907 38.9766 14.896C38.1745 13.9969 37.7735 12.774 37.7735 11.2271C37.7735 9.70218 38.1767 8.48801 38.9832 7.58454C39.7897 6.67667 40.8717 6.22273 42.2291 6.22273C43.3309 6.22273 44.2542 6.5136 44.999 7.09535C45.7438 7.67709 46.1933 8.45495 46.3476 9.42893H44.6486C44.4767 8.88685 44.1815 8.47038 43.7628 8.17951C43.3485 7.88863 42.8373 7.7432 42.2291 7.7432C41.3961 7.7432 40.7351 8.0539 40.2459 8.67531C39.7611 9.29672 39.5187 10.1429 39.5187 11.2138C39.5187 12.298 39.7655 13.153 40.2591 13.7788C40.7571 14.4046 41.4314 14.7175 42.282 14.7175C43.0092 14.7175 43.5997 14.5148 44.0536 14.1093C44.5076 13.7039 44.7412 13.1728 44.7544 12.5161L44.761 12.3178H42.4671V10.9825H46.4269V12.179ZM54.492 14.506V16H48.4101V6.46072H50.1157V14.506H54.492ZM60.1309 6.22273C61.5148 6.22273 62.61 6.67226 63.4165 7.57132C64.2274 8.47038 64.6329 9.68896 64.6329 11.2271C64.6329 12.7651 64.2296 13.9859 63.4231 14.8894C62.6166 15.7885 61.5192 16.238 60.1309 16.238C58.7339 16.238 57.6299 15.7885 56.819 14.8894C56.0125 13.9903 55.6092 12.7696 55.6092 11.2271C55.6092 9.68896 56.0147 8.47038 56.8256 7.57132C57.6409 6.67226 58.7427 6.22273 60.1309 6.22273ZM60.1309 7.73659C59.2804 7.73659 58.6039 8.0517 58.1015 8.68192C57.6034 9.31214 57.3544 10.1605 57.3544 11.2271C57.3544 12.298 57.6012 13.1486 58.0948 13.7788C58.5928 14.409 59.2716 14.7241 60.1309 14.7241C60.9771 14.7241 61.647 14.409 62.1406 13.7788C62.6386 13.1442 62.8876 12.2936 62.8876 11.2271C62.8876 10.1605 62.6386 9.31214 62.1406 8.68192C61.647 8.0517 60.9771 7.73659 60.1309 7.73659ZM70.6684 16H66.5896V6.46072H70.5759C71.4794 6.46072 72.1889 6.67446 72.7046 7.10196C73.2202 7.52504 73.478 8.10458 73.478 8.84058C73.478 9.34299 73.3149 9.79032 72.9888 10.1826C72.6627 10.5748 72.2594 10.8084 71.7791 10.8833V11.0023C72.4225 11.064 72.9447 11.3064 73.3458 11.7295C73.7468 12.1481 73.9474 12.6682 73.9474 13.2896C73.9474 14.127 73.6543 14.788 73.0681 15.2728C72.4864 15.7576 71.6865 16 70.6684 16ZM68.2952 7.81592V10.4734H69.9413C70.545 10.4734 71.0034 10.361 71.3163 10.1363C71.6336 9.90711 71.7923 9.57657 71.7923 9.14467C71.7923 8.72599 71.649 8.39986 71.3626 8.16628C71.0761 7.93271 70.6751 7.81592 70.1594 7.81592H68.2952ZM68.2952 14.6448H70.2784C70.9086 14.6448 71.3868 14.5192 71.7129 14.268C72.0391 14.0124 72.2021 13.6422 72.2021 13.1574C72.2021 12.6814 72.0325 12.32 71.6931 12.0732C71.3582 11.8264 70.8646 11.703 70.2123 11.703H68.2952V14.6448ZM81.9596 16L81.1531 13.5606H77.6428L76.823 16H75.0976L78.4823 6.46072H80.3994L83.7907 16H81.9596ZM79.3483 8.27867L78.0394 12.2121H80.7564L79.4607 8.27867H79.3483ZM91.5121 14.506V16H85.4302V6.46072H87.1358V14.506H91.5121Z" fill="#43AEED"/>
<path d="M2.16314 18.063H8.81178C10.4537 18.063 11.7827 18.5711 12.7988 19.5871C13.8222 20.5958 14.3339 21.9248 14.3339 23.5741C14.3339 25.2086 13.8075 26.5303 12.7546 27.539C11.7017 28.5477 10.3322 29.0521 8.64612 29.0521H5.4985V33.9999H2.16314V18.063ZM5.4985 20.802V26.3462H7.91719C8.88173 26.3462 9.62537 26.1106 10.1481 25.6394C10.6783 25.1608 10.9433 24.476 10.9433 23.5851C10.9433 22.6869 10.6819 21.9985 10.1592 21.5199C9.63642 21.0413 8.89277 20.802 7.92824 20.802H5.4985ZM16.4027 33.9999V17.1684H19.5614V23.8171H19.7602C20.04 23.125 20.5222 22.5801 21.207 22.1825C21.8917 21.7849 22.6832 21.5861 23.5815 21.5861C24.9436 21.5861 26.0002 21.9837 26.7512 22.7789C27.5096 23.5741 27.8887 24.7006 27.8887 26.1585V33.9999H24.6749V26.9205C24.6749 26.0811 24.4687 25.4443 24.0564 25.0099C23.6514 24.5754 23.0624 24.3582 22.2893 24.3582C21.4868 24.3582 20.8388 24.6012 20.3455 25.0872C19.8596 25.5731 19.6166 26.2137 19.6166 27.0089V33.9999H16.4027ZM34.6072 31.7689C35.3508 31.7689 35.973 31.5591 36.4737 31.1394C36.9743 30.7197 37.2247 30.2007 37.2247 29.5822V28.6876L34.7618 28.8422C33.3923 28.9379 32.7076 29.4276 32.7076 30.3111C32.7076 30.7602 32.8806 31.1173 33.2267 31.3824C33.5801 31.6401 34.0402 31.7689 34.6072 31.7689ZM33.5469 34.1876C32.3689 34.1876 31.408 33.8526 30.6644 33.1826C29.9281 32.5126 29.56 31.6254 29.56 30.5209C29.56 29.4239 29.9649 28.5624 30.7748 27.9366C31.5921 27.3034 32.7591 26.9426 34.2759 26.8542L37.2247 26.6775V25.6836C37.2247 25.1755 37.048 24.7853 36.6946 24.5129C36.3411 24.2331 35.8331 24.0932 35.1704 24.0932C33.9777 24.0932 33.2451 24.4687 32.9726 25.2197H30.0128C30.1159 24.0932 30.646 23.2023 31.6031 22.547C32.5677 21.8843 33.8157 21.553 35.3472 21.553C36.9523 21.553 38.1929 21.9138 39.0691 22.6353C39.9526 23.3569 40.3944 24.373 40.3944 25.6836V33.9999H37.2799V32.4095H37.0811C36.7645 32.9691 36.2933 33.4072 35.6674 33.7238C35.0416 34.033 34.3348 34.1876 33.5469 34.1876ZM42.7614 33.9999V21.8181H45.8759V23.7619H46.0747C46.2366 23.1434 46.6048 22.6317 47.1791 22.2267C47.7534 21.8217 48.416 21.6193 49.1671 21.6193C49.7045 21.6193 50.1169 21.6708 50.404 21.7739V24.7006C50.2788 24.6491 50.0543 24.6049 49.7303 24.5681C49.4137 24.5239 49.1376 24.5018 48.902 24.5018C48.0258 24.5018 47.319 24.7485 46.7815 25.2418C46.244 25.7351 45.9753 26.4051 45.9753 27.2518V33.9999H42.7614ZM51.8433 33.9999V21.8181H54.9578V23.806H55.1566C55.4069 23.1066 55.8303 22.558 56.4267 22.1604C57.0304 21.7555 57.7299 21.553 58.5251 21.553C59.3718 21.553 60.0823 21.7518 60.6566 22.1494C61.2383 22.5396 61.6506 23.0918 61.8936 23.806H62.0924C62.3795 23.1213 62.8507 22.5764 63.506 22.1715C64.1613 21.7592 64.9123 21.553 65.7591 21.553C66.9739 21.553 67.9348 21.9211 68.6416 22.6574C69.3484 23.3937 69.7019 24.3877 69.7019 25.6394V33.9999H66.488V26.4898C66.488 25.0467 65.8106 24.3251 64.4558 24.3251C63.8079 24.3251 63.2888 24.5313 62.8986 24.9436C62.5084 25.3559 62.3133 25.8897 62.3133 26.545V33.9999H59.2209V26.3573C59.2209 25.7167 59.0442 25.2197 58.6907 24.8663C58.3373 24.5055 57.844 24.3251 57.2108 24.3251C56.585 24.3251 56.0696 24.546 55.6646 24.9878C55.2597 25.4295 55.0572 25.9891 55.0572 26.6665V33.9999H51.8433ZM76.4313 31.7689C77.175 31.7689 77.7972 31.5591 78.2978 31.1394C78.7985 30.7197 79.0488 30.2007 79.0488 29.5822V28.6876L76.586 28.8422C75.2165 28.9379 74.5317 29.4276 74.5317 30.3111C74.5317 30.7602 74.7048 31.1173 75.0508 31.3824C75.4042 31.6401 75.8644 31.7689 76.4313 31.7689ZM75.3711 34.1876C74.193 34.1876 73.2322 33.8526 72.4885 33.1826C71.7523 32.5126 71.3841 31.6254 71.3841 30.5209C71.3841 29.4239 71.7891 28.5624 72.599 27.9366C73.4163 27.3034 74.5833 26.9426 76.1 26.8542L79.0488 26.6775V25.6836C79.0488 25.1755 78.8721 24.7853 78.5187 24.5129C78.1653 24.2331 77.6573 24.0932 76.9946 24.0932C75.8018 24.0932 75.0692 24.4687 74.7968 25.2197H71.8369C71.94 24.0932 72.4701 23.2023 73.4273 22.547C74.3918 21.8843 75.6398 21.553 77.1713 21.553C78.7764 21.553 80.017 21.9138 80.8932 22.6353C81.7768 23.3569 82.2185 24.373 82.2185 25.6836V33.9999H79.1041V32.4095H78.9053C78.5887 32.9691 78.1174 33.4072 77.4916 33.7238C76.8658 34.033 76.1589 34.1876 75.3711 34.1876ZM95.3647 26.1143H92.3607C92.2503 25.5179 91.9852 25.0503 91.5655 24.7117C91.1532 24.3656 90.612 24.1926 89.942 24.1926C89.0732 24.1926 88.4032 24.5092 87.9319 25.1424C87.4681 25.7756 87.2362 26.6886 87.2362 27.8814C87.2362 29.0889 87.4681 30.0166 87.9319 30.6645C88.4032 31.3051 89.0732 31.6254 89.942 31.6254C90.6047 31.6254 91.1421 31.4671 91.5545 31.1505C91.9741 30.8339 92.2429 30.3774 92.3607 29.781H95.3647C95.2322 31.1578 94.6874 32.2512 93.7302 33.0611C92.773 33.8637 91.5103 34.2649 89.942 34.2649C88.0424 34.2649 86.5735 33.7127 85.5353 32.6083C84.5045 31.4965 83.9891 29.9209 83.9891 27.8814C83.9891 25.8566 84.5045 24.2957 85.5353 23.1986C86.5661 22.1015 88.035 21.553 89.942 21.553C91.5324 21.553 92.7988 21.9616 93.7412 22.7789C94.691 23.5962 95.2322 24.708 95.3647 26.1143ZM98.6042 38.4507C97.9195 38.4507 97.5109 38.4397 97.3783 38.4176V35.8222C97.4888 35.8443 97.7317 35.8553 98.1072 35.8553C98.711 35.8553 99.1859 35.7486 99.532 35.535C99.8854 35.3215 100.128 34.9828 100.261 34.519L100.371 34.0772L96.0972 21.8181H99.6424L102.205 31.0511H102.403L104.966 21.8181H108.367L104.171 34.1876C103.655 35.7559 102.978 36.8567 102.138 37.4899C101.306 38.1304 100.128 38.4507 98.6042 38.4507Z" fill="#596069"/>
<mask id="mask0_1210_1025" style="mask-type:alpha" maskUnits="userSpaceOnUse" x="1" y="0" width="34" height="35">
<path d="M24.5093 31.212C24.5288 31.2034 24.5477 31.1938 24.5657 31.1828C28.8341 29.0561 32.0297 24.7338 32.7863 20.0112C34.8041 19.6555 34.947 16.8341 32.9577 16.2977C32.9226 15.8298 32.866 15.3621 32.7885 14.8997C34.5516 13.8935 33.7686 11.1916 31.7376 11.3425C29.8753 6.98034 25.8292 3.60982 21.2021 2.56853C21.0784 0.389624 18.0579 0.0717125 17.4692 2.17931C16.7794 2.19229 16.0874 2.25103 15.4065 2.35603C14.8186 2.4467 14.9656 3.373 15.5495 3.28299C16.1829 3.18536 16.8264 3.13034 17.4681 3.11746C17.7485 4.23342 19.0046 4.84252 20.058 4.38618C21.0374 5.84632 21.8222 7.41939 22.3955 9.07299C22.0069 9.33918 21.7198 9.76009 21.6152 10.2197C19.9801 10.2406 18.3489 10.448 16.7552 10.8386C16.2456 10.0568 15.2013 9.76835 14.3592 10.1654C12.8452 8.90476 11.1969 7.79422 9.44841 6.85847C9.52294 6.50388 9.4946 6.13421 9.36781 5.79586C10.5622 4.94305 11.8748 4.28032 13.275 3.82458C13.833 3.64289 13.5682 2.74281 12.9848 2.93268C11.4961 3.41719 10.1004 4.12149 8.83007 5.02746C7.08673 3.60982 4.79663 5.7447 6.04785 7.57947C3.17512 10.9432 1.86872 15.465 2.51926 19.8419C0.786509 20.8261 1.51208 23.4518 3.49484 23.3979C5.32284 27.9432 9.50495 31.464 14.2954 32.4905C14.4885 34.6019 17.4083 34.8825 18.0139 32.8446C20.2997 32.7832 22.512 32.2169 24.5093 31.212ZM24.7327 30.029C24.5702 28.2063 24.2368 26.3964 23.7378 24.6339C24.3371 24.2564 24.6828 23.5551 24.6187 22.85C26.9601 22.049 29.1905 20.9542 31.2595 19.5908C31.4386 19.7427 31.6393 19.855 31.8489 19.9289C31.1522 24.1102 28.4259 27.9624 24.7327 30.029ZM4.80898 20.1874C6.99659 16.9757 10.0101 14.4712 13.5659 12.9087C14.1666 13.8486 15.4981 14.0541 16.3602 13.351C18.5774 15.7384 20.3486 18.4704 21.6324 21.4837C21.1731 21.8111 20.8741 22.347 20.8376 22.9103C15.6294 23.9818 10.2799 23.584 5.31313 21.7559C5.38994 21.1964 5.21709 20.6142 4.80898 20.1874ZM21.9981 22.4127C22.3404 22.0061 22.9471 21.9517 23.3507 22.2915C24.2877 23.1493 23.114 24.5429 22.1094 23.7661C21.7058 23.4264 21.6559 22.8192 21.9981 22.4127ZM33.2192 18.7548C32.877 19.1614 32.2702 19.2157 31.8666 18.876C30.9296 18.0182 32.1032 16.6245 33.1079 17.4014C33.5115 17.7411 33.5614 18.3483 33.2192 18.7548ZM32.0173 16.302C30.9349 16.5813 30.3173 17.7822 30.7162 18.8257C28.7183 20.1389 26.5653 21.1936 24.3058 21.9658C24.1565 21.7433 23.9497 21.5453 23.7211 21.4058C24.5064 18.4743 24.6679 15.3743 24.1911 12.3882C24.6265 12.2067 24.9918 11.8527 25.188 11.4238C26.8515 11.6963 28.476 12.1751 30.0282 12.8499C29.7704 13.9933 30.6876 15.1495 31.8762 15.1316C31.939 15.5191 31.9862 15.9104 32.0173 16.302ZM22.7319 10.0218C23.0741 9.6152 23.6809 9.56086 24.0845 9.9006C25.0215 10.7584 23.8479 12.152 22.8433 11.3752C22.4397 11.0354 22.3897 10.4283 22.7319 10.0218ZM32.5055 12.4966C32.9091 12.8364 32.9591 13.4436 32.6168 13.8501C31.7532 14.7943 30.3699 13.6295 31.1529 12.6178C31.4951 12.2112 32.1019 12.1569 32.5055 12.4966ZM18.686 3.3832C18.2825 3.04346 18.2325 2.43632 18.5747 2.02975C19.4384 1.08549 20.8217 2.25045 20.0387 3.26207C19.6965 3.66863 19.0896 3.72294 18.686 3.3832ZM20.8012 3.8099C20.8813 3.70717 20.9492 3.59868 21.0052 3.48595C25.3159 4.46096 29.0907 7.59221 30.8478 11.6478C30.6994 11.7451 30.5624 11.8647 30.4418 12.0065C28.8115 11.2939 27.1042 10.7887 25.3557 10.5009C25.2833 9.4501 24.3243 8.64258 23.2763 8.75045C22.67 7.0061 21.8392 5.34751 20.8012 3.8099ZM21.6375 11.1574C21.844 11.8969 22.4994 12.4487 23.2634 12.526C23.7199 15.3755 23.5685 18.3338 22.8232 21.1331C22.7179 21.1284 22.6124 21.1326 22.5079 21.1452C21.1571 17.9652 19.2814 15.0874 16.9258 12.5819C17.035 12.309 17.078 12.0176 17.0563 11.7312C18.5595 11.3688 20.0968 11.1762 21.6375 11.1574ZM15.7859 11.1434C16.1895 11.4831 16.2395 12.0903 15.8972 12.4968C15.0336 13.4411 13.6503 12.2762 14.4333 11.2645C14.7756 10.858 15.3823 10.8036 15.7859 11.1434ZM6.86059 5.85486C7.20283 5.4483 7.80959 5.39395 8.21319 5.73369C9.15015 6.59147 7.97654 7.98509 6.97193 7.20826C6.56834 6.86861 6.51836 6.26143 6.86059 5.85486ZM6.76559 8.18316C6.76559 8.18316 8.05541 8.86285 9.03388 7.70046C9.03388 7.70046 12.2065 9.60737 13.6266 10.776C13.3604 11.1458 13.2448 11.5844 13.2732 12.0127C9.50729 13.6486 6.31821 16.2925 4.01222 19.6908C3.8234 19.6314 3.62767 19.6028 3.43241 19.6038C2.85681 15.5366 4.47911 10.8994 6.76559 8.18316ZM2.81404 22.2386C2.41044 21.8989 2.3605 21.2917 2.70274 20.8852C3.04497 20.4786 3.65173 20.4242 4.05533 20.764C4.45353 21.0992 4.497 21.7251 4.16668 22.1175C3.82445 22.524 3.21764 22.5783 2.81404 22.2386ZM8.3842 28.552C6.64289 27.0862 5.27201 25.2197 4.39948 23.1325C4.61268 23.006 4.81194 22.8252 4.95973 22.625C10.0936 24.5208 15.6241 24.937 21.0086 23.8327C21.1383 24.1134 21.3371 24.3596 21.5837 24.5461C21.2451 25.2718 20.863 25.9814 20.4443 26.6601C20.1237 27.1796 20.9207 27.6741 21.2425 27.1526C21.6871 26.432 22.0925 25.6782 22.4505 24.9071C22.5812 24.9259 22.7133 24.9307 22.8445 24.9223C23.3576 26.7429 23.6884 28.6155 23.8303 30.4994C22.0362 31.3579 20.0668 31.8448 18.0339 31.9058C17.9918 31.7232 17.9222 31.5463 17.8264 31.3815C18.4584 30.7739 19.056 30.1263 19.6063 29.4515C19.9936 28.9767 19.2669 28.3837 18.8796 28.8586C18.3506 29.5073 17.776 30.1297 17.1681 30.7135C16.2087 30.1358 14.9167 30.5473 14.4576 31.5659C12.2319 31.0666 10.1398 30.0298 8.3842 28.552ZM15.5656 33.0792C15.162 32.7394 15.1121 32.1323 15.4543 31.7257C16.318 30.7815 17.7013 31.9464 16.9183 32.958C16.5761 33.3646 15.9693 33.4189 15.5656 33.0792Z" fill="black"/>
</mask>
<g mask="url(#mask0_1210_1025)">
<rect x="-3.8667" y="-1.30597" width="39" height="17" fill="#43AEED"/>
</g>
</g>
<defs>
<clipPath id="clip0_1210_1025">
<rect width="109" height="39" fill="white"/>
</clipPath>
</defs>
</svg>
