<svg width="24" height="24" viewBox="0 0 24 24" fill="none" xmlns="http://www.w3.org/2000/svg">
<path fill-rule="evenodd" clip-rule="evenodd" d="M4.3595 5.06069C4.3615 5.06069 4.3115 5.11269 4.2485 5.17469C4.0065 5.40969 3.5055 5.89869 3.50045 6.92169C3.4925 8.35269 4.4335 11.0097 8.9645 15.5397C13.4745 20.0477 16.1275 20.9997 17.5615 20.9997H17.5825C18.6055 20.9947 19.0935 20.4927 19.3295 20.2517C19.4015 20.1777 19.4595 20.1237 19.5005 20.0897C20.4965 19.0877 21.0065 18.3417 21.0015 17.8637C20.9945 17.3757 20.3875 16.7987 19.5485 16.0007C19.2815 15.7467 18.9915 15.4707 18.6855 15.1647C17.8925 14.3737 17.4995 14.5087 16.6355 14.8127C15.4405 15.2317 13.8005 15.8017 11.2525 13.2527C8.7005 10.7027 9.2715 9.06469 9.6895 7.86969C9.9915 7.00569 10.1295 6.61169 9.3355 5.81769C9.0245 5.50769 8.7455 5.21369 8.4885 4.94369C7.6955 4.10969 7.1235 3.50669 6.6385 3.49969H6.6305C6.1515 3.49969 5.4075 4.01169 4.3545 5.06469C4.3575 5.06169 4.3585 5.06069 4.3595 5.06069ZM17.5625 22.4997C15.0705 22.4997 11.8215 20.5157 7.9045 16.6007C3.9725 12.6697 1.9855 9.41069 2.00042 6.91369C2.0095 5.26369 2.8745 4.41869 3.1995 4.10169C3.2165 4.08069 3.2745 4.02369 3.2945 4.00369C4.7285 2.56869 5.6955 1.98869 6.6575 1.99954C7.7745 2.01469 8.5695 2.85069 9.5755 3.90969C9.8245 4.17169 10.0945 4.45669 10.3955 4.75669C11.8555 6.21669 11.4395 7.40769 11.1055 8.36369C10.7415 9.40669 10.4265 10.3067 12.3125 12.1927C14.2005 14.0787 15.1005 13.7637 16.1395 13.3967C17.0965 13.0627 18.2845 12.6447 19.7465 14.1047C20.0425 14.4007 20.3235 14.6677 20.5825 14.9147C21.6465 15.9257 22.4865 16.7247 22.5007 17.8447C22.5125 18.7997 21.9325 19.7727 20.5005 21.2057L19.8665 20.7757L20.4025 21.2997C20.0855 21.6247 19.2415 22.4907 17.5905 22.4997H17.5625Z" fill="black"/>
</svg>
