<svg width="24" height="24" viewBox="0 0 24 24" fill="none" xmlns="http://www.w3.org/2000/svg">
<path fill-rule="evenodd" clip-rule="evenodd" d="M10.132 9.07137L11.9995 10.9388L13.866 9.07347C14.159 8.78047 14.633 8.78047 14.926 9.07347C15.219 9.36647 15.219 9.84047 14.926 10.1335L13.0595 11.9988L14.928 13.8684C15.221 14.1614 15.221 14.6354 14.928 14.9284C14.782 15.0754 14.589 15.1484 14.398 15.1484C14.206 15.1484 14.014 15.0754 13.868 14.9284L11.9995 13.0588L10.134 14.9255C9.98804 15.0725 9.79604 15.1455 9.60404 15.1455C9.41205 15.1455 9.22005 15.0725 9.07405 14.9255C8.78105 14.6325 8.78105 14.1585 9.07405 13.8655L10.9395 11.9988L9.07204 10.1314C8.77904 9.83837 8.77904 9.36437 9.07204 9.07137C9.36604 8.77837 9.84004 8.77837 10.132 9.07137Z" fill="black"/>
<path fill-rule="evenodd" clip-rule="evenodd" d="M12.0001 2C17.5141 2 22.0001 6.486 22.0001 12C22.0001 17.514 17.5141 22 12.0001 22C6.48606 22 2.00006 17.514 2.00006 12C2.00006 6.486 6.48606 2 12.0001 2ZM12.0001 3.5C7.31306 3.5 3.50006 7.313 3.50006 12C3.50006 16.687 7.31306 20.5 12.0001 20.5C16.6871 20.5 20.5001 16.687 20.5001 12C20.5001 7.313 16.6871 3.5 12.0001 3.5Z" fill="black"/>
</svg>
