<svg width="28" height="17" viewBox="0 0 28 17" fill="none" xmlns="http://www.w3.org/2000/svg">
<g clip-path="url(#clip0_11:902)">
<path fill-rule="evenodd" clip-rule="evenodd" d="M9.97437 15.1608H17.368V1.81473H9.97437V15.1608Z" fill="#FF5F00"/>
<path fill-rule="evenodd" clip-rule="evenodd" d="M10.444 8.48775C10.444 5.78016 11.7061 3.3687 13.6714 1.81473C12.234 0.678077 10.4206 0 8.4494 0C3.78297 0 0.000244141 3.80016 0.000244141 8.48775C0.000244141 13.1754 3.78297 16.9755 8.4494 16.9755C10.4206 16.9755 12.234 16.2974 13.6714 15.1608C11.7061 13.6066 10.444 11.1953 10.444 8.48775Z" fill="#EB001B"/>
<path fill-rule="evenodd" clip-rule="evenodd" d="M27.3426 8.48769C27.3426 13.1753 23.5596 16.9754 18.8934 16.9754C16.9222 16.9754 15.1086 16.2974 13.6714 15.1607C15.6367 13.6068 16.8988 11.1953 16.8988 8.48769C16.8988 5.78034 15.6367 3.36887 13.6714 1.81467C15.1086 0.678016 16.9222 -6.10352e-05 18.8934 -6.10352e-05C23.5596 -6.10352e-05 27.3426 3.8001 27.3426 8.48769Z" fill="#F79E1B"/>
</g>
<defs>
<clipPath id="clip0_11:902">
<rect width="27.625" height="17" fill="white"/>
</clipPath>
</defs>
</svg>
