<svg width="24" height="24" viewBox="0 0 24 24" fill="none" xmlns="http://www.w3.org/2000/svg">
<path fill-rule="evenodd" clip-rule="evenodd" d="M11.7388 1.5C17.1088 1.5 21.4768 5.868 21.4768 11.238C21.4768 13.7715 20.5045 16.0823 18.9134 17.8165L22.0442 20.9407C22.3372 21.2337 22.3382 21.7077 22.0452 22.0007C21.8992 22.1487 21.7062 22.2217 21.5142 22.2217C21.3232 22.2217 21.1312 22.1487 20.9842 22.0027L17.8156 18.843C16.1488 20.1778 14.0354 20.977 11.7388 20.977C6.36876 20.977 1.99976 16.608 1.99976 11.238C1.99976 5.868 6.36876 1.5 11.7388 1.5ZM11.7388 3C7.19576 3 3.49976 6.695 3.49976 11.238C3.49976 15.781 7.19576 19.477 11.7388 19.477C16.2808 19.477 19.9768 15.781 19.9768 11.238C19.9768 6.695 16.2808 3 11.7388 3Z" fill="#A7ABB1"/>
</svg>
