<svg width="150" height="54" viewBox="0 0 150 54" fill="none" xmlns="http://www.w3.org/2000/svg">
<g clip-path="url(#clip0_1265_20)">
<path d="M63.9643 16.8777C63.9643 18.5706 63.4492 19.9201 62.419 20.9262C61.3888 21.9262 60.0032 22.4263 58.2621 22.4263C56.3705 22.4263 54.8764 21.8148 53.7799 20.5918C52.6835 19.3628 52.1353 17.691 52.1353 15.5765C52.1353 13.492 52.6865 11.8323 53.789 10.5973C54.8915 9.35621 56.3705 8.73569 58.226 8.73569C59.7321 8.73569 60.9942 9.13331 62.0124 9.92854C63.0305 10.7238 63.645 11.7871 63.8558 13.1185H61.5334C61.2985 12.3775 60.8948 11.8082 60.3225 11.4106C59.7562 11.0129 59.0574 10.8141 58.226 10.8141C57.0874 10.8141 56.1837 11.2389 55.515 12.0883C54.8523 12.9378 54.5209 14.0944 54.5209 15.5584C54.5209 17.0404 54.8583 18.2092 55.5331 19.0646C56.2138 19.9201 57.1356 20.3478 58.2983 20.3478C59.2923 20.3478 60.0996 20.0707 60.7201 19.5165C61.3406 18.9622 61.6599 18.2363 61.678 17.3386L61.687 17.0675H58.5513V15.2421H63.9643V16.8777ZM74.989 20.0587V22.101H66.6753V9.06101H69.0068V20.0587H74.989ZM82.6973 8.73569C84.589 8.73569 86.0861 9.35019 87.1886 10.5792C88.2971 11.8082 88.8513 13.4739 88.8513 15.5765C88.8513 17.679 88.3001 19.3478 87.1976 20.5828C86.0951 21.8118 84.595 22.4263 82.6973 22.4263C80.7876 22.4263 79.2785 21.8118 78.17 20.5828C77.0675 19.3538 76.5162 17.685 76.5162 15.5765C76.5162 13.4739 77.0705 11.8082 78.179 10.5792C79.2935 9.35019 80.7996 8.73569 82.6973 8.73569ZM82.6973 10.8051C81.5346 10.8051 80.6099 11.2358 79.9231 12.0973C79.2423 12.9588 78.9019 14.1185 78.9019 15.5765C78.9019 17.0404 79.2393 18.2031 79.914 19.0646C80.5948 19.9261 81.5226 20.3569 82.6973 20.3569C83.854 20.3569 84.7698 19.9261 85.4445 19.0646C86.1253 18.1971 86.4656 17.0344 86.4656 15.5765C86.4656 14.1185 86.1253 12.9588 85.4445 12.0973C84.7698 11.2358 83.854 10.8051 82.6973 10.8051ZM97.1018 22.101H91.5262V9.06101H96.9753C98.2103 9.06101 99.1803 9.3532 99.8851 9.93757C100.59 10.5159 100.942 11.3081 100.942 12.3142C100.942 13.001 100.72 13.6125 100.274 14.1487C99.8279 14.6848 99.2766 15.0041 98.62 15.1066V15.2692C99.4995 15.3536 100.213 15.6849 100.762 16.2633C101.31 16.8356 101.584 17.5465 101.584 18.3959C101.584 19.5406 101.183 20.4442 100.382 21.1069C99.5869 21.7696 98.4935 22.101 97.1018 22.101ZM93.8576 10.9135V14.5463H96.1078C96.9331 14.5463 97.5597 14.3927 97.9874 14.0854C98.4212 13.7721 98.6381 13.3203 98.6381 12.7299C98.6381 12.1576 98.4423 11.7118 98.0507 11.3925C97.6591 11.0732 97.1109 10.9135 96.406 10.9135H93.8576ZM93.8576 20.2484H96.5686C97.4301 20.2484 98.0838 20.0767 98.5296 19.7333C98.9754 19.3839 99.1983 18.8779 99.1983 18.2152C99.1983 17.5645 98.9664 17.0705 98.5025 16.7332C98.0446 16.3958 97.3699 16.2271 96.4783 16.2271H93.8576V20.2484ZM112.536 22.101L111.434 18.7664H106.636L105.515 22.101H103.156L107.783 9.06101H110.404L115.04 22.101H112.536ZM108.967 11.5461L107.178 16.9229H110.892L109.121 11.5461H108.967ZM125.594 20.0587V22.101H117.281V9.06101H119.612V20.0587H125.594Z" fill="#43AEED"/>
<path d="M3.45694 23.6184H12.5455C14.7899 23.6184 16.6066 24.3129 17.9955 25.7018C19.3945 27.0807 20.0941 28.8974 20.0941 31.1519C20.0941 33.3863 19.3744 35.193 17.9352 36.5718C16.4959 37.9507 14.6238 38.6401 12.319 38.6401H8.0163V45.4037H3.45694V23.6184ZM8.0163 27.3625V34.9413H11.3226C12.6411 34.9413 13.6576 34.6193 14.3722 33.9751C15.0969 33.3209 15.4592 32.3849 15.4592 31.167C15.4592 29.9391 15.1019 28.9981 14.3873 28.3439C13.6727 27.6896 12.6562 27.3625 11.3377 27.3625H8.0163ZM22.9221 45.4037V22.3956H27.2399V31.4841H27.5116C27.8941 30.538 28.5533 29.7932 29.4893 29.2497C30.4254 28.7062 31.5073 28.4344 32.7352 28.4344C34.5972 28.4344 36.0415 28.9779 37.0681 30.0649C38.1048 31.1519 38.6231 32.6918 38.6231 34.6847V45.4037H34.2299V35.7264C34.2299 34.579 33.948 33.7084 33.3844 33.1146C32.8308 32.5207 32.0257 32.2238 30.9689 32.2238C29.8718 32.2238 28.9861 32.556 28.3118 33.2203C27.6475 33.8845 27.3153 34.7602 27.3153 35.8472V45.4037H22.9221ZM47.8071 42.3541C48.8236 42.3541 49.6741 42.0672 50.3585 41.4935C51.0429 40.9198 51.3851 40.2103 51.3851 39.3648V38.1419L48.0184 38.3533C46.1464 38.4841 45.2103 39.1534 45.2103 40.3612C45.2103 40.9752 45.4469 41.4633 45.9199 41.8257C46.403 42.1779 47.0321 42.3541 47.8071 42.3541ZM46.3577 45.6603C44.7474 45.6603 43.4339 45.2024 42.4174 44.2865C41.4109 43.3706 40.9076 42.1578 40.9076 40.6481C40.9076 39.1484 41.4612 37.9708 42.5683 37.1153C43.6855 36.2498 45.2808 35.7566 47.3541 35.6358L51.3851 35.3942V34.0355C51.3851 33.341 51.1435 32.8076 50.6604 32.4352C50.1773 32.0527 49.4829 31.8615 48.577 31.8615C46.9465 31.8615 45.9451 32.3748 45.5727 33.4014H41.5266C41.6675 31.8615 42.3922 30.6437 43.7006 29.7479C45.0191 28.8421 46.7251 28.3891 48.8186 28.3891C51.0127 28.3891 52.7086 28.8823 53.9063 29.8687C55.1141 30.855 55.718 32.244 55.718 34.0355V45.4037H51.4606V43.2297H51.1888C50.756 43.9946 50.1119 44.5935 49.2564 45.0263C48.4009 45.449 47.4347 45.6603 46.3577 45.6603ZM58.9536 45.4037V28.7515H63.211V31.4086H63.4828C63.7042 30.5631 64.2074 29.8636 64.9925 29.3101C65.7776 28.7565 66.6834 28.4797 67.71 28.4797C68.4447 28.4797 69.0084 28.5502 69.4009 28.6911V32.6918C69.2298 32.6214 68.9228 32.561 68.48 32.5107C68.0472 32.4503 67.6697 32.4201 67.3477 32.4201C66.15 32.4201 65.1837 32.7573 64.449 33.4316C63.7143 34.106 63.3469 35.0218 63.3469 36.1793V45.4037H58.9536ZM71.3684 45.4037V28.7515H75.6258V31.469H75.8975C76.2397 30.5128 76.8184 29.763 77.6337 29.2195C78.459 28.6659 79.4152 28.3891 80.5022 28.3891C81.6596 28.3891 82.6309 28.6609 83.4159 29.2044C84.211 29.7378 84.7747 30.4927 85.1068 31.469H85.3785C85.7711 30.533 86.4152 29.7882 87.311 29.2346C88.2068 28.671 89.2334 28.3891 90.3908 28.3891C92.0515 28.3891 93.365 28.8924 94.3312 29.8989C95.2974 30.9053 95.7805 32.2641 95.7805 33.9751V45.4037H91.3872V35.1376C91.3872 33.1649 90.4613 32.1785 88.6093 32.1785C87.7236 32.1785 87.0141 32.4604 86.4806 33.024C85.9472 33.5876 85.6805 34.3173 85.6805 35.2131V45.4037H81.4533V34.9564C81.4533 34.0808 81.2117 33.4014 80.7286 32.9183C80.2455 32.4251 79.5712 32.1785 78.7056 32.1785C77.8501 32.1785 77.1455 32.4805 76.592 33.0844C76.0384 33.6883 75.7616 34.4532 75.7616 35.3791V45.4037H71.3684ZM104.98 42.3541C105.996 42.3541 106.847 42.0672 107.531 41.4935C108.215 40.9198 108.558 40.2103 108.558 39.3648V38.1419L105.191 38.3533C103.319 38.4841 102.383 39.1534 102.383 40.3612C102.383 40.9752 102.619 41.4633 103.092 41.8257C103.575 42.1779 104.205 42.3541 104.98 42.3541ZM103.53 45.6603C101.92 45.6603 100.606 45.2024 99.5898 44.2865C98.5834 43.3706 98.0801 42.1578 98.0801 40.6481C98.0801 39.1484 98.6337 37.9708 99.7408 37.1153C100.858 36.2498 102.453 35.7566 104.527 35.6358L108.558 35.3942V34.0355C108.558 33.341 108.316 32.8076 107.833 32.4352C107.35 32.0527 106.655 31.8615 105.749 31.8615C104.119 31.8615 103.118 32.3748 102.745 33.4014H98.6991C98.84 31.8615 99.5647 30.6437 100.873 29.7479C102.192 28.8421 103.898 28.3891 105.991 28.3891C108.185 28.3891 109.881 28.8823 111.079 29.8687C112.287 30.855 112.89 32.244 112.89 34.0355V45.4037H108.633V43.2297H108.361C107.929 43.9946 107.284 44.5935 106.429 45.0263C105.573 45.449 104.607 45.6603 103.53 45.6603ZM130.861 34.6243H126.755C126.604 33.809 126.241 33.1699 125.668 32.7069C125.104 32.2339 124.364 31.9974 123.448 31.9974C122.261 31.9974 121.345 32.4302 120.701 33.2957C120.066 34.1613 119.749 35.4093 119.749 37.0398C119.749 38.6905 120.066 39.9586 120.701 40.8443C121.345 41.72 122.261 42.1578 123.448 42.1578C124.354 42.1578 125.089 41.9414 125.652 41.5086C126.226 41.0758 126.593 40.4518 126.755 39.6366H130.861C130.68 41.5187 129.935 43.0133 128.627 44.1204C127.318 45.2175 125.592 45.766 123.448 45.766C120.852 45.766 118.844 45.0112 117.424 43.5014C116.015 41.9817 115.311 39.8278 115.311 37.0398C115.311 34.272 116.015 32.1383 117.424 30.6386C118.834 29.139 120.841 28.3891 123.448 28.3891C125.622 28.3891 127.353 28.9477 128.642 30.0649C129.94 31.1821 130.68 32.7019 130.861 34.6243ZM135.289 51.4879C134.353 51.4879 133.795 51.4728 133.613 51.4426V47.8947C133.764 47.9249 134.097 47.94 134.61 47.94C135.435 47.94 136.084 47.7941 136.557 47.5022C137.041 47.2103 137.373 46.7473 137.554 46.1133L137.705 45.5094L131.862 28.7515H136.708L140.211 41.3727H140.483L143.985 28.7515H148.635L142.898 45.6603C142.194 47.8041 141.268 49.3088 140.12 50.1744C138.983 51.05 137.373 51.4879 135.289 51.4879Z" fill="white"/>
<mask id="mask0_1265_20" style="mask-type:alpha" maskUnits="userSpaceOnUse" x="2" y="1" width="46" height="46">
<path d="M34.0037 42.666C34.0303 42.6543 34.0562 42.6413 34.0808 42.6262C39.9156 39.719 44.2838 33.8106 45.3182 27.3549C48.0764 26.8687 48.2718 23.0119 45.5524 22.2787C45.5044 21.6391 45.427 20.9997 45.3212 20.3676C47.7312 18.9922 46.6609 15.2988 43.8845 15.505C41.3389 9.54207 35.808 4.93467 29.4828 3.51126C29.3137 0.53275 25.1849 0.0981744 24.3801 2.97921C23.4371 2.99694 22.4912 3.07724 21.5604 3.22077C20.7568 3.34471 20.9578 4.61094 21.7559 4.48791C22.6217 4.35444 23.5014 4.27923 24.3785 4.26163C24.7619 5.78711 26.4789 6.61973 27.9188 5.99593C29.2576 7.99191 30.3305 10.1423 31.1143 12.4027C30.583 12.7665 30.1906 13.3419 30.0476 13.9702C27.8125 13.9988 25.5826 14.2823 23.404 14.8163C22.7074 13.7475 21.2799 13.3532 20.1288 13.896C18.0593 12.1727 15.806 10.6546 13.4159 9.37549C13.5178 8.89078 13.479 8.38545 13.3057 7.92292C14.9384 6.75716 16.7327 5.85122 18.6467 5.22824C19.4095 4.97987 19.0475 3.74949 18.25 4.00904C16.215 4.67134 14.3072 5.63411 12.5706 6.87255C10.1875 4.93467 7.05703 7.85299 8.76741 10.3611C4.84047 14.9593 3.05465 21.1403 3.94392 27.1235C1.5753 28.4689 2.56713 32.0581 5.27752 31.9844C7.77634 38.1977 13.4932 43.0106 20.0415 44.4137C20.3056 47.3 24.2969 47.6836 25.1247 44.8978C28.2493 44.8139 31.2735 44.0398 34.0037 42.666ZM34.3091 41.049C34.0869 38.5574 33.6311 36.0833 32.9491 33.674C33.7683 33.158 34.2408 32.1993 34.1532 31.2355C37.3539 30.1406 40.4028 28.644 43.231 26.7803C43.4759 26.9879 43.7502 27.1413 44.0368 27.2425C43.0844 32.9581 39.3575 38.224 34.3091 41.049ZM7.07391 27.5957C10.0643 23.2054 14.1837 19.7818 19.0444 17.6459C19.8655 18.9308 21.6856 19.2117 22.8641 18.2506C25.8949 21.5142 28.3161 25.2486 30.0711 29.3677C29.4431 29.8154 29.0345 30.5478 28.9845 31.3179C21.8651 32.7826 14.5525 32.2388 7.76307 29.7399C7.86806 28.975 7.63178 28.1792 7.07391 27.5957ZM30.571 30.6376C31.0388 30.0819 31.8683 30.0076 32.42 30.472C33.7008 31.6445 32.0964 33.5497 30.7232 32.4877C30.1715 32.0233 30.1032 31.1934 30.571 30.6376ZM45.9099 25.6375C45.4421 26.1932 44.6127 26.2675 44.0609 25.8031C42.7801 24.6305 44.3844 22.7253 45.7578 23.7874C46.3095 24.2518 46.3777 25.0817 45.9099 25.6375ZM44.267 22.2845C42.7874 22.6663 41.943 24.308 42.4884 25.7343C39.7574 27.5295 36.8142 28.9712 33.7255 30.0267C33.5214 29.7227 33.2388 29.4519 32.9263 29.2613C33.9998 25.254 34.2205 21.0164 33.5687 16.9345C34.1638 16.6863 34.6632 16.2025 34.9315 15.6162C37.2054 15.9887 39.4261 16.6431 41.548 17.5655C41.1955 19.1287 42.4492 20.7091 44.0741 20.6847C44.1599 21.2143 44.2244 21.7492 44.267 22.2845ZM31.5741 13.6996C32.0419 13.1439 32.8713 13.0696 33.423 13.534C34.7039 14.7066 33.0996 16.6116 31.7263 15.5497C31.1746 15.0853 31.1063 14.2553 31.5741 13.6996ZM44.9343 17.0827C45.486 17.5472 45.5543 18.3771 45.0865 18.9329C43.9059 20.2236 42.0149 18.6312 43.0853 17.2483C43.5531 16.6926 44.3826 16.6183 44.9343 17.0827ZM26.0435 4.62488C25.4918 4.16047 25.4235 3.33052 25.8913 2.77476C27.072 1.48399 28.9628 3.07645 27.8925 4.4593C27.4247 5.01506 26.5952 5.0893 26.0435 4.62488ZM28.9348 5.20818C29.0443 5.06774 29.1372 4.91945 29.2137 4.76534C35.1063 6.09816 40.2663 10.3785 42.6683 15.9223C42.4654 16.0554 42.2781 16.2189 42.1132 16.4127C39.8846 15.4386 37.5509 14.748 35.1606 14.3546C35.0617 12.9182 33.7509 11.8143 32.3182 11.9618C31.4894 9.57729 30.3537 7.31005 28.9348 5.20818ZM30.0781 15.252C30.3603 16.2629 31.2563 17.0172 32.3006 17.1229C32.9246 21.018 32.7176 25.062 31.6988 28.8885C31.5549 28.8822 31.4107 28.8878 31.2679 28.9051C29.4213 24.5581 26.8573 20.6242 23.6373 17.1993C23.7865 16.8262 23.8453 16.4278 23.8157 16.0364C25.8705 15.5411 27.9719 15.2777 30.0781 15.252ZM22.0791 15.2328C22.6308 15.6973 22.6991 16.5272 22.2313 17.083C21.0506 18.3737 19.1597 16.7813 20.2301 15.3984C20.698 14.8427 21.5274 14.7684 22.0791 15.2328ZM9.87841 8.00358C10.3462 7.44782 11.1757 7.37353 11.7274 7.83794C13.0082 9.0105 11.4039 10.9155 10.0306 9.85364C9.47891 9.38934 9.41058 8.55934 9.87841 8.00358ZM9.74855 11.1863C9.74855 11.1863 11.5117 12.1154 12.8492 10.5265C12.8492 10.5265 17.1861 13.1332 19.1274 14.7306C18.7635 15.2361 18.6055 15.8357 18.6443 16.4212C13.4964 18.6575 9.13699 22.2715 5.98476 26.917C5.72664 26.8358 5.45909 26.7966 5.19218 26.798C4.40535 21.2383 6.62299 14.8994 9.74855 11.1863ZM4.34688 30.3997C3.79517 29.9353 3.72691 29.1053 4.19473 28.5496C4.66256 27.9938 5.49199 27.9195 6.04369 28.3839C6.58801 28.8421 6.64744 29.6977 6.19591 30.2341C5.72808 30.7899 4.89859 30.8641 4.34688 30.3997ZM11.9611 39.03C9.58082 37.0263 7.70686 34.4748 6.51414 31.6216C6.80557 31.4487 7.07795 31.2016 7.27998 30.9279C14.2979 33.5194 21.8579 34.0883 29.2184 32.5787C29.3956 32.9626 29.6675 33.2991 30.0045 33.5539C29.5417 34.546 29.0194 35.516 28.4469 36.4437C28.0088 37.1539 29.0982 37.8298 29.5381 37.1171C30.1459 36.132 30.7 35.1015 31.1894 34.0474C31.3681 34.0731 31.5486 34.0798 31.728 34.0682C32.4293 36.5569 32.8815 39.1168 33.0756 41.692C30.623 42.8655 27.9309 43.5311 25.1521 43.6145C25.0944 43.3649 24.9993 43.1231 24.8684 42.8978C25.7323 42.0672 26.5492 41.1819 27.3015 40.2595C27.8309 39.6104 26.8374 38.7999 26.308 39.4491C25.5849 40.3358 24.7994 41.1866 23.9685 41.9846C22.657 41.1949 20.8908 41.7575 20.2633 43.1499C17.2208 42.4673 14.3609 41.0501 11.9611 39.03ZM21.778 45.2185C21.2263 44.754 21.158 43.9241 21.6258 43.3683C22.8064 42.0776 24.6973 43.67 23.627 45.0529C23.1592 45.6086 22.3297 45.6829 21.778 45.2185Z" fill="black"/>
</mask>
<g mask="url(#mask0_1265_20)">
<rect x="-4.78558" y="-1.78503" width="53.3119" height="23.2385" fill="#43AEED"/>
</g>
</g>
<defs>
<clipPath id="clip0_1265_20">
<rect width="149" height="53.3119" fill="white" transform="translate(0.5)"/>
</clipPath>
</defs>
</svg>
