<svg width="20" height="20" viewBox="0 0 20 20" fill="none" xmlns="http://www.w3.org/2000/svg">
<path fill-rule="evenodd" clip-rule="evenodd" d="M18.3636 16.7024C18.3636 16.5788 18.3257 16.48 18.2498 16.4058L16.6856 14.8647C16.6097 14.7905 16.5085 14.7535 16.382 14.7535H15.8507C16.4579 14.0614 16.9322 13.2829 17.2738 12.4178C17.6153 11.5527 17.7861 10.6506 17.7861 9.71139C17.7861 8.30258 17.4319 7.01117 16.7235 5.83716C16.0152 4.66315 15.0602 3.73012 13.8585 3.03807C12.6568 2.34602 11.335 2 9.89303 2C8.45103 2 7.1292 2.34602 5.92754 3.03807C4.72588 3.73012 3.77087 4.66315 3.06252 5.83716C2.35417 7.01117 2 8.30258 2 9.71139C2 11.1202 2.35417 12.4116 3.06252 13.5856C3.77087 14.7596 4.72588 15.6927 5.92754 16.3847C7.1292 17.0768 8.45103 17.4228 9.89303 17.4228C10.8544 17.4228 11.7777 17.256 12.6632 16.9223C13.5486 16.5886 14.3455 16.1252 15.0538 15.532V16.051C15.0538 16.1499 15.0918 16.2488 15.1677 16.3476L16.7319 17.8517C16.8078 17.9506 16.909 18 17.0355 18C17.162 18 17.2758 17.9506 17.377 17.8517L18.2498 17.0361C18.3257 16.9372 18.3636 16.826 18.3636 16.7024ZM12.9288 14.8462C11.9928 15.3776 10.9809 15.6433 9.89304 15.6433C8.80522 15.6433 7.79329 15.3776 6.85726 14.8462C5.92123 14.3148 5.18126 13.5918 4.63735 12.6774C4.09344 11.7629 3.82148 10.7742 3.82148 9.71143C3.82148 8.64864 4.09344 7.66 4.63735 6.74551C5.18126 5.83102 5.92123 5.10807 6.85726 4.57668C7.79329 4.04529 8.80522 3.77959 9.89304 3.77959C10.9809 3.77959 11.9928 4.04529 12.9288 4.57668C13.8649 5.10807 14.6048 5.83102 15.1487 6.74551C15.6926 7.66 15.9646 8.64864 15.9646 9.71143C15.9646 10.7742 15.6926 11.7629 15.1487 12.6774C14.6048 13.5918 13.8649 14.3148 12.9288 14.8462Z" fill="white"/>
</svg>
