<svg width="450" height="350" viewBox="0 0 450 350" fill="none" xmlns="http://www.w3.org/2000/svg">
<g clip-path="url(#clip0)">
<g filter="url(#filter0_d)">
<path d="M20 350.009L20 80.0563C20 65.6658 31.6658 54 46.0563 54L401.073 54C415.463 54 427.129 65.6658 427.129 80.0563L427.129 350.009L20 350.009Z" fill="white"/>
</g>
<circle cx="277.306" cy="288.507" r="32.5703" fill="#F2F2F2"/>
<g clip-path="url(#clip1)">
<rect width="65.1407" height="65.1407" rx="32.5703" transform="matrix(-1 0 0 1 309.876 151.113)" fill="white"/>
<g clip-path="url(#clip2)">
<rect width="71.89" height="71.89" rx="35.945" transform="matrix(-1 0 0 1 309.876 151.113)" fill="white"/>
<rect opacity="0.15" width="391.401" height="391.401" transform="matrix(-1 0 0 1 318.36 130.458)" fill="url(#paint0_linear)"/>
<path d="M301.378 192.793C296.679 190.582 291.601 189.067 286.413 188.662C284.768 191.45 282.555 193.711 279.885 195.542C277.428 197.227 274.79 198.389 271.741 198.441C267.392 198.514 263.966 195.339 262.794 191.135C262.588 190.395 262.434 189.642 262.256 188.894C253.603 187.672 247.42 192.705 238.975 193.639C237.258 196.557 235.542 199.405 233.961 202.401C232.218 205.702 230.123 208.773 228.498 212.133C229 212.634 229.309 213.7 229.7 214.022C230.033 214.296 230.322 214.728 230.902 216.597C232.447 221.576 235.214 216.67 234.964 223.93C198.749 231.692 239.027 235.156 245.494 237.95C260.626 244.488 280.462 244.367 290.316 229.277C292.46 225.992 294.713 222.779 296.9 219.522C297.189 219.092 297.332 218.326 297.905 218.453C301.632 219.251 301.366 219.518 304.294 219.518C305.018 218.07 307.182 217.366 308.036 215.997C311.134 211.032 310.623 205.218 313.7 200.24C313.78 200.112 313.82 199.959 313.878 199.817C313.681 199.698 313.49 199.567 313.286 199.462C310.25 197.902 305.3 194.638 301.378 192.793Z" fill="#002E31"/>
<path d="M301.971 219.38C302.693 217.938 303.878 216.522 304.729 215.159C307.818 210.213 310.569 204.984 313.637 200.027C313.716 199.898 313.756 199.746 313.986 199.853C319.441 202.387 324.61 205.357 328.912 209.638C330.525 211.243 332.002 212.971 332.759 215.159C333.919 218.511 333.135 221.648 331.514 224.647C330.231 227.02 328.289 228.814 326.242 230.512C321.448 234.489 316.352 238.033 310.957 241.147C307.736 243.007 304.558 244.944 301.219 246.598C299.52 247.439 298.072 248.625 296.72 249.954C295.163 251.484 293.289 252.356 291.065 252.423C290.188 252.45 289.387 252.247 288.687 251.746C288.165 251.374 287.631 251.177 286.986 251.167C285.787 251.149 284.701 250.859 284.069 249.695C283.918 249.418 283.66 249.373 283.373 249.427C283.11 249.477 282.843 249.519 282.584 249.588C282.145 249.703 281.698 249.702 281.431 249.315C281.141 248.895 281.069 248.39 281.292 247.892C281.538 247.343 281.985 246.96 282.485 246.68C285.027 245.254 287.547 243.776 290.237 242.64C291.044 242.299 291.713 241.876 292.259 241.2C297.127 235.164 302.552 229.634 307.926 224.058C308.83 223.12 309.771 222.217 310.692 221.294C310.899 221.087 311.181 220.922 311.19 220.465C310.302 220.216 309.392 220.191 308.488 220.131C306.46 219.999 303.969 219.786 301.971 219.38Z" fill="#FF715E"/>
<path d="M279.352 184.663C278.04 181.134 280.303 177.564 281.734 174.197C281.829 173.92 281.925 173.644 282.029 173.37C280.594 173.94 279.777 175.124 279.193 176.547C279 177.018 278.821 177.506 278.944 177.996C279.079 178.537 278.795 178.851 278.517 179.226C276.476 181.981 273.752 183.845 270.673 185.251C270.964 186.305 270.86 186.515 269.868 187.039C267.196 188.451 265.019 188.901 262.042 188.882C262.221 189.629 262.337 190.395 262.544 191.135C263.731 195.391 267.392 198.514 271.741 198.441C274.79 198.389 277.429 197.227 279.885 195.542C282.507 193.744 284.686 191.532 286.322 188.813C283.447 188.528 280.246 187.069 279.352 184.663Z" fill="#9C603D"/>
<path d="M282.761 173.164C282.027 174.446 282.21 175.545 281.11 177.193C280.376 178.292 279.069 178.48 278.517 179.225C276.475 181.981 273.751 183.845 270.672 185.251C270.342 185.211 270.079 185.39 269.808 185.528C267.746 186.588 265.585 186.64 263.405 186.059C258.761 184.823 257.756 179.53 259.614 176.644C260.834 174.749 262.364 173.595 264.603 173.383C264.871 173.357 265.136 173.281 265.403 173.277C267.688 173.245 269.927 172.985 272.038 172.032C272.337 172.653 272.624 173.281 272.94 173.893C273.237 174.472 273.537 175.047 274.031 175.501C275.067 176.453 276.023 176.498 277.105 175.618C278.524 174.464 279.368 172.926 279.93 171.234C280.346 169.983 279.753 168.858 278.534 168.342C277.75 168.01 276.911 167.89 276.093 167.686C277.67 165.647 280.175 165.503 281.83 167.36C282.425 168.027 282.875 168.771 283.157 169.634C283.585 170.943 283.678 171.698 282.761 173.164Z" fill="#002E31"/>
<path d="M276.094 167.686C276.911 167.89 277.75 168.011 278.534 168.342C279.753 168.858 280.346 169.984 279.93 171.234C279.368 172.927 278.525 174.465 277.105 175.619C276.023 176.499 275.068 176.454 274.031 175.501C273.538 175.048 273.237 174.472 272.94 173.894C272.624 173.281 272.338 172.654 272.038 172.032C273.098 171.247 273.944 170.266 274.696 169.187C275.086 168.627 275.489 168.058 276.094 167.686Z" fill="#9C603D"/>
<path d="M283.737 171.618C284.409 169.643 283.272 167.526 281.983 165.884C280.695 164.242 279.148 162.625 278.835 160.563C278.551 158.691 279.321 156.609 278.367 154.972C277.031 152.683 274.188 152.127 272.006 153.58C266.58 157.195 272.111 165.66 276.328 167.612C277.113 167.976 277.955 168.217 278.711 168.636C279.468 169.055 280.159 169.703 280.351 170.546C280.58 171.548 280.243 173.128 281.69 173.364C282.677 173.525 283.457 172.442 283.737 171.618Z" fill="#002E31"/>
<path d="M273.083 176.784C272.392 177.158 271.531 176.99 271.081 176.355C270.631 175.72 270.76 174.853 271.343 174.327L273.083 176.784Z" fill="white"/>
</g>
</g>
<g clip-path="url(#clip3)">
<rect x="156.795" y="151.113" width="65.1407" height="65.1407" rx="32.5703" fill="white"/>
<rect opacity="0.15" x="156.795" y="151.113" width="352" height="352" fill="url(#paint1_linear)"/>
<path d="M155.46 186.356C151.549 189.842 152.104 194.491 151.08 198.616C150.098 202.631 158.425 206.204 159.123 210.316C159.741 213.967 160.829 217.489 161.8 221.04C162.059 221.985 162.309 222.936 162.539 223.889C162.753 224.777 162.937 225.676 163.14 226.565C163.402 227.709 163.432 228.826 163.29 229.916C163.12 231.188 162.712 232.429 162.153 233.636C161.733 234.544 161.294 235.443 160.857 236.348C160.155 237.809 159.467 239.274 158.913 240.796C158.794 241.124 158.681 241.455 158.575 241.788C157.909 243.887 157.5 246.047 157.277 248.235C157.203 248.962 157.204 249.691 156.969 250.397C156.648 251.347 156.987 252.099 157.738 252.694C158.541 253.33 159.478 253.704 160.44 254.002C163.548 254.958 166.695 255.767 169.882 256.407C174.171 257.268 178.466 258.102 182.788 258.761C183.893 258.931 185.001 259.086 186.112 259.229C191.357 259.9 196.614 260.513 201.922 260.433C201.981 260.431 202.044 260.433 202.103 260.43C203.25 260.409 204.379 260.242 205.524 260.206C207.193 260.151 208.422 258.587 208.348 256.908C208.218 254.101 206.981 251.702 205.505 249.427C203.513 246.345 201.002 243.657 198.706 240.813C197.04 238.745 195.377 236.677 193.698 234.621C193.006 233.773 192.684 232.812 192.581 231.729C192.467 230.562 192.497 229.423 192.655 228.304C192.86 226.777 193.298 225.292 193.913 223.831C194.178 223.203 194.458 222.586 194.751 221.974L194.752 221.971C195.593 220.237 196.554 218.571 197.629 216.962C198.228 216.066 198.244 216.055 199.274 216.505C202.371 217.873 205.629 218.815 208.743 220.151C210.124 220.747 211.628 220.513 212.797 219.32C213.244 218.863 213.724 218.438 214.188 217.999C214.93 216.74 215.991 215.728 216.899 214.602C218.897 212.131 220.969 209.724 223.012 207.293C223.272 206.759 223.551 206.235 223.789 205.693C224.357 204.404 223.894 203.343 222.555 202.852C222.126 202.693 221.682 202.579 221.244 202.448C219.335 201.879 217.64 200.906 216.038 199.748C215.923 199.671 215.814 199.59 215.702 199.506C214.375 198.52 213.045 197.534 211.693 196.585C211.027 196.112 210.354 195.65 209.672 195.201C206.872 193.355 203.884 191.925 200.544 191.248C198.006 190.731 195.496 190.407 192.934 190.958C191.467 191.972 189.873 192.755 188.284 193.55C187.254 194.067 186.331 194.716 185.511 195.529C183.243 197.794 181.076 200.134 179.624 203.038C179.298 203.698 178.878 204.299 178.306 204.769C177.441 205.476 176.524 205.249 176.109 204.214C175.866 203.617 175.828 202.973 175.845 202.328C175.913 199.72 176.311 197.168 176.968 194.633C177.7 191.793 178.614 189.04 179.783 186.356C180.079 185.675 180.47 185.076 181.07 184.625C181.439 183.513 181.083 182.674 180.319 181.785C177.981 179.053 176.152 176.01 175.037 172.556C174.657 171.388 174.132 170.256 173.569 169.158C172.722 167.513 170.083 155.621 165.416 159.752C163.657 162.174 162.061 164.741 160.17 167.075C157.733 170.084 155.213 173.024 153.073 176.26C152.89 176.737 155.304 185.926 155.46 186.356Z" fill="#0097D5"/>
<path d="M191.58 184.996C197.298 188.28 203.402 191.275 209.974 191.808C214.263 192.155 219.154 191.161 222.809 188.843C230.785 183.786 227.44 173.876 218.098 174.549C213.181 174.903 208.04 176.812 205.987 170.994C204.81 167.658 203.915 164.203 202.327 161.041C199.831 156.067 195.357 152.335 189.463 153.127C184.812 153.751 180.819 157.467 179.361 161.871C177.282 168.156 179.783 175.302 184.32 180.121C188.54 183.146 190.65 184.6 191.58 184.996Z" fill="url(#paint2_linear)"/>
<path d="M175.845 202.328C175.827 202.972 175.866 203.617 176.108 204.214C176.524 205.248 177.441 205.476 178.306 204.77C178.877 204.299 179.297 203.698 179.624 203.038C181.075 200.134 183.243 197.793 185.511 195.529C186.33 194.717 187.254 194.067 188.284 193.55C189.873 192.755 191.466 191.971 192.934 190.958C191.042 190.054 190.367 188.544 190.937 186.52C191.073 186.039 191.214 185.561 191.498 185.142C191.622 184.826 191.857 184.802 192.165 184.826C192.932 184.889 193.709 184.942 194.48 184.827C195.763 184.638 196.723 184.086 197.453 183.305C198.182 182.528 198.684 181.522 199.059 180.417C199.613 178.781 200.074 177.109 200.619 175.463C200.703 175.211 200.785 174.952 200.82 174.681C200.846 174.494 200.851 174.303 200.821 174.102C197.086 173.864 194.854 171.642 193.304 168.527C192.82 167.545 192.408 166.525 191.951 165.528C191.562 164.679 191.435 164.651 190.681 165.271C189.499 166.246 188.636 167.482 187.851 168.778C187.687 169.052 187.535 169.332 187.377 169.608C187.118 170.063 186.844 170.149 186.405 169.774C185.93 169.368 185.472 168.949 184.715 169.028C183.833 169.125 183.229 169.544 182.926 170.314C182.461 171.508 182.476 172.74 183.016 173.918C183.333 174.606 183.848 175.162 184.633 175.276C185.358 175.378 185.489 175.763 185.454 176.407C185.382 177.657 185.808 178.979 184.891 180.099C184.359 181.204 183.862 182.327 183.278 183.4C182.821 184.248 182.152 184.839 181.069 184.625C180.47 185.076 180.078 185.676 179.783 186.356C178.614 189.04 177.7 191.794 176.967 194.632C176.311 197.168 175.913 199.72 175.845 202.328Z" fill="#FFBF9D"/>
<path d="M191.45 177.535C191.117 178.836 191.757 180.194 192.997 180.673C194.239 181.153 195.625 180.578 196.253 179.391L191.45 177.535Z" fill="white"/>
<path d="M173.21 223.138C175.025 225.621 178.586 225.916 181.654 225.68C184.719 225.443 188.04 224.96 190.669 226.553C191.438 227.02 192.081 227.621 192.654 228.304C192.86 226.777 193.299 225.292 193.913 223.83C194.178 223.203 194.458 222.585 194.751 221.974L194.751 221.97C194.387 221.59 194.032 221.197 193.693 220.804C191.053 217.746 188.566 214.255 184.817 212.746C181.055 211.229 176.306 212.27 173.799 215.46C172.096 217.629 171.581 220.914 173.21 223.138Z" fill="#53BAE4"/>
<path d="M155.081 198.9C155.029 199.095 154.98 199.294 154.931 199.49C155.952 199.56 156.98 199.718 157.96 199.887C161.119 200.438 164.764 200.885 167.186 198.778C169.458 196.8 169.672 193.346 169.216 190.368C169.159 189.998 169.097 189.623 168.928 189.288C168.696 188.815 168.279 188.452 167.824 188.179C165.592 186.84 162.668 187.602 160.424 188.921C158.707 189.928 157.164 191.24 155.45 192.23C155.742 193.057 156.037 193.883 156.341 194.705C156.543 195.262 156.518 195.731 156.257 196.272C155.838 197.135 155.33 197.959 155.081 198.9Z" fill="#53BAE4"/>
<path d="M241.453 201.94C240.751 200.807 239.784 199.899 238.683 199.131C236.726 197.578 232.342 195.293 232.342 195.293C230.611 194.668 228.863 194.148 227.005 194.209C224.244 194.299 222.522 195.554 221.738 198.109C221.439 199.083 221.221 200.081 220.937 201.06C220.612 202.181 220.527 202.193 219.467 201.662C218.652 201.253 217.355 200.577 216.407 200.091C214.423 199.075 214.998 214.609 202.195 217.709C207.811 220.769 211.595 220.762 216.407 222.236C219.13 223.07 221.912 223.612 224.771 223.438C226.918 223.308 228.721 222.55 230.022 220.85C230.641 220.042 231.265 219.238 231.86 218.412C233.73 215.815 235.741 213.349 238.344 211.408C239.165 210.795 239.98 210.173 240.693 209.435C242.752 207.302 243.052 204.52 241.453 201.94Z" fill="#0097D5"/>
</g>
<path d="M20.0003 80.0565C20.0003 65.666 31.6661 54.0002 46.0566 54.0002H124.584V350.009H20.0003V80.0565Z" fill="#FAFAFA"/>
<rect x="68.8555" y="213.595" width="8.14259" height="37.4559" rx="4.07129" fill="#BDBDBD"/>
<rect x="54.1989" y="236.394" width="8.14258" height="37.4559" rx="4.07129" transform="rotate(-90 54.1989 236.394)" fill="#BDBDBD"/>
<rect x="39.5422" y="112.627" width="65.1407" height="65.1407" rx="16.2852" fill="#0E71EB"/>
<rect x="52.9612" y="137.033" width="6.10941" height="16.3302" rx="3.05471" fill="white"/>
<rect x="61.1064" y="128.868" width="6.10941" height="32.6603" rx="3.05471" fill="white"/>
<rect x="69.2534" y="132.95" width="6.10941" height="24.4952" rx="3.05471" fill="white"/>
<rect x="77.3983" y="123.765" width="6.10941" height="42.8667" rx="3.05471" fill="white"/>
<rect x="85.5451" y="137.033" width="6.10941" height="16.3302" rx="3.05471" fill="white"/>
<rect x="161.681" y="73.5423" width="118.882" height="13.0281" rx="6.51407" fill="#E0E0E0"/>
<rect x="181.223" y="99.5986" width="149.824" height="13.0281" rx="6.51407" fill="#F2F2F2"/>
<rect x="161.681" y="99.5986" width="13.0281" height="13.0281" rx="6.51407" fill="#F2F2F2"/>
<rect x="46.0563" y="73.5423" width="13.0281" height="13.0281" rx="6.51407" fill="#BDBDBD"/>
<rect x="67.2271" y="73.5423" width="13.0281" height="13.0281" rx="6.51407" fill="#BDBDBD"/>
<rect x="88.3976" y="73.5423" width="13.0281" height="13.0281" rx="6.51407" fill="#BDBDBD"/>
<circle cx="189.366" cy="288.507" r="32.5703" fill="#E0E0E0"/>
<g filter="url(#filter1_i)">
<g clip-path="url(#clip4)">
<rect width="134.842" height="134.842" rx="67.421" transform="matrix(-1 0 0 1 449.688 84.9316)" fill="white"/>
<rect opacity="0.15" width="153.895" height="148.861" transform="matrix(-1 0 0 1 454.253 68.1313)" fill="url(#paint3_linear)"/>
<path d="M280.697 85.5888C277.76 73.6656 278.802 62.1843 284.052 51.1192C286.302 46.3733 289.582 42.3962 293.915 39.3476C293.915 39.3476 304.6 35.4178 308.073 37.1136C312.984 38.4117 316.357 41.7747 319.313 45.6259C323.589 51.1965 325.94 57.6834 327.891 64.323C329.188 68.7366 330.197 73.2212 331.118 77.7355C331.978 81.9612 332.658 86.2132 333.443 90.4493C334.488 96.0978 335.288 101.81 336.674 107.375C339.032 116.826 343.07 125.62 348.244 133.869C353.648 142.489 360.397 149.659 370.058 153.597C370.393 153.734 370.65 154.065 370.943 154.307C369.371 158.317 367.784 162.322 366.228 166.338C362.967 174.756 362.343 183.442 363.535 192.334C364.542 199.843 363.863 207.225 361.66 214.477C359.683 220.984 357.711 227.49 355.827 234.023C354.617 238.221 354.495 242.509 355.125 246.831C355.266 247.801 355.755 248.642 355.971 249.554C356.005 249.692 356.048 249.83 356.095 249.966C356.09 249.958 356.083 249.952 356.076 249.944C350.958 243.438 346.54 235.61 343.425 227.953C340.526 220.825 340.59 213.155 339.578 205.648C339.467 199.265 339.522 193.027 337.768 186.812C336.095 180.878 333.713 175.009 330.581 169.695C328.504 166.167 325.966 163.008 323.22 160.012C321.892 158.121 320.518 156.263 319.064 154.465C308.783 141.752 299.802 128.193 292.232 113.698C287.521 104.682 283.15 95.5522 280.697 85.5888Z" fill="#FFAC00"/>
<path d="M444.746 156.64C443.662 156.593 442.587 156.437 441.529 156.147C441.297 156.083 441.066 156.012 440.837 155.935C435.847 154.256 432.266 150.043 427.137 148.576C422.176 147.157 416.918 147.649 411.913 148.548C404.505 149.881 396.99 152.064 389.579 150.75C379.673 148.993 369.758 141.463 366.29 132.019C364.18 126.275 362.198 120.058 362.683 113.982C363.23 107.152 364.081 103.186 369.872 97.3435C373.628 92.8429 382.334 90.3259 386.99 90.3045C393.016 89.9159 403.087 90.8956 405.733 103.06C416.317 108.193 412.583 114.76 416.737 121.302C418.147 123.524 419.875 125.758 422.358 126.629C426.268 128.002 430.429 125.549 433.65 122.942C438.533 118.989 442.95 114.39 448.371 111.212C455.042 107.304 463.395 105.803 470.649 108.476C477.904 111.15 483.557 118.486 483.056 126.2C482.698 131.726 479.449 136.66 475.673 140.71C471.076 145.641 465.532 149.68 459.446 152.579C455.047 154.675 449.801 156.853 444.746 156.64Z" fill="#002E31"/>
<path d="M402.696 252.643C409.177 249.666 414.886 245.525 419.319 239.899C419.368 239.764 419.411 239.626 419.444 239.488C419.661 238.575 420.15 237.734 420.291 236.764C420.92 232.443 420.799 228.153 419.588 223.957C417.705 217.423 415.733 210.916 413.756 204.411C411.553 197.159 410.874 189.776 411.881 182.267C413.073 173.375 420.203 165.073 416.942 156.654C415.386 152.638 423.596 140.664 418.325 140.436C415.397 140.31 398.234 145.546 396.118 146.857C396.426 148.311 397.861 149.17 398.544 150.419C400.775 154.491 400.269 157.246 397.133 160.755C395.102 163.03 392.335 163.105 389.254 161.487C385.644 159.59 384.002 156.313 384.785 152.444C385.031 151.228 385.42 150.039 385.743 148.839C385.244 148.703 384.767 148.668 384.399 149.135C383.27 150.908 371.749 152.765 370.505 154.453C364.166 163.062 363.93 171.409 362.923 181.803C362.143 189.844 365.721 196.179 362.868 209.041C361.503 215.192 361.301 216.799 358.921 223.271C356.739 229.203 354.888 232.703 354.573 239.995C354.438 243.126 354.241 246.702 356.073 249.876C357.691 252.679 360.513 253.843 361.163 254.272C363.352 255.717 368.176 256.533 371.784 256.863C382.441 256.671 391.216 257.515 402.696 252.643Z" fill="#FBE3C7"/>
<path d="M396.588 146.912C394.697 144.664 394.429 143.149 395.939 141.387C398.591 138.291 400.71 134.947 401.521 130.895C401.765 129.688 402.421 129.367 403.583 129.662C404.697 129.947 405.639 129.439 406.472 128.742C409.976 125.815 410.062 119.738 406.651 116.623C406.367 117.008 406.096 117.403 405.799 117.775C403.744 120.345 402.241 120.5 399.87 118.205C397.862 116.261 396.806 113.799 396.847 111.004C396.851 110.82 396.844 110.65 396.827 110.496C394.037 110.122 391.379 109.122 388.934 107.712C387.132 113.807 383.374 119.635 378.599 123.584C377.373 124.6 375.74 125.647 373.943 126.52C373.958 131.396 376.033 135.402 379.15 139.033C380.986 141.168 383.511 142.406 385.582 144.227C386.086 144.533 386.502 144.885 386.35 145.571C386.065 146.86 385.844 148.177 384.738 149.091C384.415 150.291 384.026 151.48 383.78 152.696C382.997 156.565 384.639 159.843 388.249 161.739C391.33 163.357 395.278 163.057 397.309 160.782C400.445 157.273 400.9 154.708 398.669 150.636C397.986 149.388 396.897 148.366 396.588 146.912Z" fill="#E57C2F"/>
<path d="M409.69 124.829C408.565 129.028 405.64 131.892 403.158 131.227C400.677 130.562 399.576 126.62 400.701 122.42C401.826 118.221 404.751 115.357 407.232 116.022C409.714 116.687 410.815 120.63 409.69 124.829Z" fill="#E57C2F"/>
<path d="M388.738 129.429C388.666 131.382 387.212 133.014 385.282 133.171C383.351 133.328 381.653 131.952 381.267 130.036L388.738 129.429Z" fill="white"/>
<path fill-rule="evenodd" clip-rule="evenodd" d="M482.664 131.799C485.05 132.6 487.269 133.722 489.13 135.378C493.372 139.151 494.307 144.262 491.739 149.118C490.849 150.798 489.714 152.325 488.564 153.837C484.916 158.631 482.609 164.057 480.625 169.642C480.089 171.151 479.507 172.644 478.925 174.135C478.821 174.4 478.718 174.664 478.615 174.929C477.178 178.625 474.341 180.9 470.552 182.234C465.507 184.012 460.221 184.477 454.886 184.388C450.094 184.31 445.546 187.658 440.994 191.01C439.296 192.26 437.598 193.51 435.886 194.583C435.88 194.937 435.875 195.291 435.868 195.645C435.6 197.639 435.407 199.645 435.214 201.649C434.682 207.189 434.151 212.716 432.022 217.95C428.907 225.608 424.489 233.436 419.371 239.941C419.369 239.944 419.366 239.947 419.364 239.949C419.359 239.954 419.355 239.959 419.352 239.963C419.399 239.827 419.442 239.69 419.475 239.552C419.568 239.159 419.712 238.78 419.857 238.398C420.048 237.892 420.242 237.382 420.322 236.829C420.951 232.507 420.83 228.218 419.62 224.02C417.736 217.488 415.764 210.981 413.787 204.475C411.584 197.223 410.905 189.841 411.912 182.332C413.103 173.44 412.48 164.754 409.219 156.336C408.144 153.564 407.056 150.797 405.967 148.029C405.479 146.788 404.99 145.546 404.503 144.305C404.596 144.228 404.685 144.143 404.773 144.058C404.967 143.873 405.159 143.688 405.389 143.594C412.214 139.926 419.617 139.864 426.148 141.778C428.147 142.162 430.135 142.599 432.123 143.037C434.096 143.472 436.07 143.907 438.054 144.289C439.15 144.5 442.067 144.968 444.719 145.394C446.809 145.729 448.735 146.038 449.476 146.175C451.662 146.577 451.809 146.51 451.798 144.347C451.794 143.501 451.764 142.654 451.734 141.808C451.698 140.765 451.661 139.722 451.673 138.68C451.726 133.727 454.155 130.607 459.07 129.029C462.376 127.967 465.793 127.995 469.234 128.219C469.234 128.219 478.323 130.037 482.664 131.799Z" fill="#FFAC00"/>
<path d="M478.432 135.205C479.935 140.29 480.003 141.098 476.993 141.279C473.38 141.495 472.803 141.44 469.916 141.16C466.451 140.824 465.345 140.527 464.946 138.594C464.342 137 463.953 135.324 463.467 133.684C462.063 128.127 461.035 122.465 458.936 117.099C458.525 116.047 457.914 115.469 456.75 115.033C453.918 113.972 451.853 111.935 450.593 109.255C449.87 107.719 449.96 106.124 451.627 105.078C452.645 104.439 452.754 103.622 452.496 102.737C452.136 101.512 452.639 100.688 453.538 99.9021C455.775 97.9424 457.986 95.955 460.208 93.9807C460.991 93.2864 461.966 92.9239 462.924 92.5818C465.049 91.8272 467.03 92.803 467.952 95.0454C468.712 96.8941 468.773 98.8905 468.973 100.848C469.313 104.199 469.574 107.559 469.893 110.914C469.955 111.563 470.01 112.253 470.269 112.836C472.565 118.023 477.923 133.483 478.432 135.205Z" fill="#FFBF9D"/>
<g clip-path="url(#clip5)">
<path d="M442.909 108.334L464.023 105.025C464.876 104.892 465.505 104.14 465.505 103.255L465.505 93.3613C465.505 92.4768 464.876 91.7248 464.023 91.5912L442.909 88.283L442.909 108.334Z" fill="#FF6465"/>
<path opacity="0.1" d="M445.829 107.876L445.829 88.7405L442.909 88.2831L442.909 108.334L445.829 107.876Z" fill="#171D26"/>
<path d="M441.342 87.9759L441.342 108.641C441.342 109.528 442.044 110.248 442.909 110.248C443.775 110.248 444.477 109.528 444.477 108.641L444.477 87.976C444.477 87.0882 443.775 86.3685 442.909 86.3685C442.044 86.3685 441.342 87.0881 441.342 87.9759Z" fill="white"/>
<path d="M447.155 90.7861L447.155 105.83C447.155 106.08 446.958 106.282 446.714 106.282C446.471 106.282 446.273 106.08 446.273 105.83L446.273 90.7862C446.273 90.5364 446.471 90.3341 446.714 90.3341C446.958 90.334 447.155 90.5364 447.155 90.7861Z" fill="#D2555A"/>
<path d="M449.119 91.9588L449.119 104.658C449.119 104.908 448.921 105.11 448.678 105.11C448.434 105.11 448.237 104.908 448.237 104.658L448.237 91.9588C448.237 91.7091 448.435 91.5067 448.678 91.5067C448.921 91.5067 449.119 91.7091 449.119 91.9588Z" fill="#D2555A"/>
<path opacity="0.2" d="M464.023 101.408L444.477 104.471L444.477 105.024C444.477 105.911 443.775 106.631 442.909 106.631C442.044 106.631 441.342 105.911 441.342 105.024L441.342 108.641C441.342 109.528 442.044 110.248 442.909 110.248C443.775 110.248 444.477 109.528 444.477 108.641L444.477 108.088L464.023 105.025C464.876 104.892 465.505 104.14 465.505 103.255L465.505 99.6384C465.505 100.523 464.876 101.275 464.023 101.408Z" fill="#171D26"/>
</g>
<path d="M450.341 105.996C451.046 103.501 453.449 101.891 454.808 99.6793C455.097 99.21 455.345 98.7024 455.738 98.3123C456.129 97.9214 456.717 97.6626 457.242 97.8367C457.464 97.9105 457.657 98.0543 457.824 98.2175C458.934 99.3001 458.906 101.165 458.175 102.535C457.443 103.905 456.163 104.889 454.907 105.808C456.116 104.923 459.648 108.898 459.913 109.87C460.354 111.481 459.367 113.175 457.933 113.937C453.702 116.184 449.286 109.729 450.341 105.996Z" fill="#FFBF9D"/>
</g>
</g>
<path d="M284.991 97.8872C282.395 87.6067 284.032 79.6977 289.162 70.0399C291.362 65.8976 294.522 62.4058 298.664 59.7026C298.664 59.7026 308.824 56.1431 312.082 57.5604C316.704 58.6123 319.843 61.4746 322.578 64.7658C326.536 69.5263 328.183 73.0611 329.927 78.7814C331.086 82.5838 331.971 86.452 332.773 90.3472C333.523 93.9934 334.101 97.665 334.779 101.321C335.682 106.197 337.424 111.329 338.65 116.128C340.736 124.276 343.347 131.633 348.114 138.699C353.092 146.083 359.363 152.193 368.436 155.46C368.751 155.574 369.001 155.409 369.275 155.614C367.728 159.109 366.155 163.048 364.623 166.549C361.412 173.885 360.691 181.415 361.683 189.096C362.521 195.584 361.768 201.985 359.575 208.297C359.204 210.346 338.983 201.935 338.978 198.78C338.969 193.255 338.973 190.05 337.409 184.694C335.917 179.58 333.754 174.534 330.874 169.978C328.964 166.954 326.612 164.256 324.062 161.702C322.835 160.084 321.564 158.496 320.217 156.961C310.691 146.104 302.406 134.496 295.469 122.056C291.153 114.319 287.159 106.478 284.991 97.8872Z" fill="#FFAC00"/>
<path d="M314.253 66.1383C314.872 68.5578 297.374 72.8499 296.523 70.2732C294.058 62.811 312.408 58.9233 314.253 66.1383Z" fill="#D98F00"/>
<path d="M298.743 67.6717C298.524 65.5424 298.911 60.4772 298.945 59.6403C299.114 55.2883 299.444 50.9478 300.544 46.6757C300.784 45.7371 300.339 45.0652 299.965 44.3238C297.21 38.8638 295.879 33.0286 295.153 27.0404C295.002 25.7943 295.061 24.5297 295.518 23.3127C295.733 22.7365 296.088 22.2178 296.868 22.2697C297.603 22.318 297.984 22.7691 298.071 23.4036C298.218 24.4757 298.306 25.5565 298.435 26.6309C298.629 28.2475 298.796 29.8718 299.659 31.3743C300.768 30.8266 300.466 30.0256 300.402 29.3221C300.093 25.9169 299.736 22.5159 299.444 19.1097C299.358 18.117 299.358 17.1073 299.443 16.1108C299.502 15.4093 299.903 14.7902 300.788 14.7503C301.575 14.7148 301.859 15.2928 301.995 15.8696C302.359 17.4098 302.765 18.9485 302.976 20.5137C303.299 22.9032 303.47 25.3151 303.707 27.7174C303.749 28.1234 303.729 28.6637 304.257 28.7083C304.954 28.7687 305.091 28.1892 305.18 27.6821C305.268 27.1848 305.303 26.6809 305.402 26.1861C306.029 23.0486 306.642 19.9095 307.312 16.7788C307.714 14.9027 308.611 14.1325 310.067 14.2616C311.228 14.3637 311.304 16.123 311.029 18.2353C310.77 20.2226 309.229 26.2849 308.829 27.9595C308.749 28.2966 308.941 28.6762 309.31 28.7449C309.84 28.8432 310.13 28.4547 310.255 28.0355C310.78 26.2697 311.278 24.497 311.786 22.7269C311.978 22.0788 312.126 21.4175 312.372 20.7862C312.863 19.5194 313.385 18.2599 313.943 17.0154C314.288 16.2484 314.897 15.7537 315.858 15.9292C316.898 16.1184 316.993 16.8714 316.9 17.666C316.803 18.4979 316.664 19.3269 316.507 20.1529C315.907 23.305 314.714 26.3213 313.737 29.3863C313.14 31.2521 312.865 33.1612 312.528 35.063C312.469 35.4033 312.527 35.7578 312.894 35.921C313.262 36.0852 313.596 35.8871 313.854 35.6512C314.177 35.357 314.512 35.0509 314.74 34.6956C315.752 33.1173 317.375 32.125 318.853 31.008C320.091 30.0721 321.58 29.6273 323.15 29.6202C324.436 29.6139 324.947 30.4331 324.296 31.4572C323.886 32.1013 323.309 32.6774 322.723 33.2036C319.812 35.8192 317.188 38.6027 315.768 42.1974C315.427 43.0595 313.265 46.426 312.432 46.9524C312.432 46.9524 310.051 53.1058 310.503 57.2579C310.644 58.5557 310.694 64.1116 310.785 65.6542C310.865 67.2291 309.827 66.9839 307.976 67.5842C305.606 68.0619 303.458 68.7406 301.387 69.1399C299.683 69.2562 298.878 68.9778 298.743 67.6717Z" fill="#E57C2F"/>
</g>
<defs>
<filter id="filter0_d" x="-0.356466" y="28.5544" width="447.842" height="336.722" filterUnits="userSpaceOnUse" color-interpolation-filters="sRGB">
<feFlood flood-opacity="0" result="BackgroundImageFix"/>
<feColorMatrix in="SourceAlpha" type="matrix" values="0 0 0 0 0 0 0 0 0 0 0 0 0 0 0 0 0 0 127 0"/>
<feOffset dy="-5.08912"/>
<feGaussianBlur stdDeviation="10.1782"/>
<feColorMatrix type="matrix" values="0 0 0 0 0 0 0 0 0 0 0 0 0 0 0 0 0 0 0.08 0"/>
<feBlend mode="normal" in2="BackgroundImageFix" result="effect1_dropShadow"/>
<feBlend mode="normal" in="SourceGraphic" in2="effect1_dropShadow" result="shape"/>
</filter>
<filter id="filter1_i" x="314.846" y="84.9316" width="134.842" height="134.842" filterUnits="userSpaceOnUse" color-interpolation-filters="sRGB">
<feFlood flood-opacity="0" result="BackgroundImageFix"/>
<feBlend mode="normal" in="SourceGraphic" in2="BackgroundImageFix" result="shape"/>
<feColorMatrix in="SourceAlpha" type="matrix" values="0 0 0 0 0 0 0 0 0 0 0 0 0 0 0 0 0 0 127 0" result="hardAlpha"/>
<feOffset/>
<feGaussianBlur stdDeviation="4.352"/>
<feComposite in2="hardAlpha" operator="arithmetic" k2="-1" k3="1"/>
<feColorMatrix type="matrix" values="0 0 0 0 0.595833 0 0 0 0 0 0 0 0 0 0.00893742 0 0 0 0.05 0"/>
<feBlend mode="normal" in2="shape" result="effect1_innerShadow"/>
</filter>
<linearGradient id="paint0_linear" x1="195.701" y1="407.881" x2="195.701" y2="-1.12481" gradientUnits="userSpaceOnUse">
<stop stop-color="#FFC258"/>
<stop offset="1" stop-color="#FFA621"/>
</linearGradient>
<linearGradient id="paint1_linear" x1="448.205" y1="475.537" x2="419.828" y2="187.645" gradientUnits="userSpaceOnUse">
<stop stop-color="#0DB9EF"/>
<stop offset="1" stop-color="#55FFFF"/>
</linearGradient>
<linearGradient id="paint2_linear" x1="202.956" y1="151.384" x2="202.956" y2="191.987" gradientUnits="userSpaceOnUse">
<stop stop-color="#FFB32F"/>
<stop offset="1" stop-color="#F29100"/>
</linearGradient>
<linearGradient id="paint3_linear" x1="72.7135" y1="142.981" x2="75.5827" y2="7.64833" gradientUnits="userSpaceOnUse">
<stop offset="0.08988" stop-color="#DD0000"/>
<stop offset="1" stop-color="#FF87B2"/>
</linearGradient>
<clipPath id="clip0">
<rect width="450" height="350" fill="white" transform="matrix(-1 0 0 1 450 0)"/>
</clipPath>
<clipPath id="clip1">
<rect width="65.1407" height="65.1407" rx="32.5703" transform="matrix(-1 0 0 1 309.876 151.113)" fill="white"/>
</clipPath>
<clipPath id="clip2">
<rect width="71.89" height="71.89" rx="35.945" transform="matrix(-1 0 0 1 309.876 151.113)" fill="white"/>
</clipPath>
<clipPath id="clip3">
<rect x="156.795" y="151.113" width="65.1407" height="65.1407" rx="32.5703" fill="white"/>
</clipPath>
<clipPath id="clip4">
<rect width="134.842" height="134.842" rx="67.421" transform="matrix(-1 0 0 1 449.688 84.9316)" fill="white"/>
</clipPath>
<clipPath id="clip5">
<rect width="24.7831" height="24.1635" fill="white" transform="translate(441.342 110.7) rotate(-90)"/>
</clipPath>
</defs>
</svg>
