<svg width="450" height="300" viewBox="0 0 450 300" fill="none" xmlns="http://www.w3.org/2000/svg">
<g clip-path="url(#clip0)">
<path d="M313.44 194.873L342.421 356.344H339.2L307 194L313.44 194.873Z" fill="#E0E0E0"/>
<path d="M162.338 263.938L186.973 353.401H189.566L169.469 261.992L162.338 263.938Z" fill="#F2F2F2"/>
<path d="M106.586 263.938L81.9512 353.401H79.3586L99.4549 261.992L106.586 263.938Z" fill="#F2F2F2"/>
<path d="M96.8625 204.296C96.8625 204.296 97.5099 153.081 121.496 152.434C145.483 151.785 160.393 171.233 162.987 194.571C165.58 217.91 181.139 249.676 184.38 259.4C187.622 269.125 142.242 272.366 129.925 268.475C117.607 264.586 91.6763 263.938 93.6205 236.71C95.5657 209.482 96.8625 204.296 96.8625 204.296Z" fill="#BDBDBD"/>
<path d="M150.63 70.0268C145.304 67.6021 137.197 67.2735 135.882 67.1192C120.125 65.2848 110.641 85.1348 110.084 91.1511C109.055 102.238 102.291 103.928 92.7719 110.87C73.6804 124.794 79.2771 140.972 89.7163 146.982C95.9821 150.59 107.021 146.982 107.021 146.982C107.176 147.076 137.213 132.424 152.019 125.355C174.216 122.618 164.202 76.2075 150.63 70.0268Z" fill="url(#paint0_linear)"/>
<path d="M121.883 122.414C124.082 121.534 134.197 123.293 130.846 115.873C128.264 112.768 126.206 109.423 125.435 105.392C125.203 104.192 124.561 103.864 123.42 104.143C122.326 104.411 121.405 103.895 120.592 103.194C117.173 100.245 117.125 94.2132 120.49 91.166C120.766 91.5514 121.029 91.9463 121.319 92.3197C123.319 94.8954 124.792 95.0683 127.131 92.82C129.111 90.9164 130.162 88.4867 130.138 85.713C130.136 85.5298 130.144 85.3621 130.161 85.2091C132.9 84.873 135.513 83.9142 137.92 82.5459C139.65 88.6164 143.3 94.4461 147.96 98.4252C149.156 99.4487 150.751 100.508 152.508 101.397C152.464 106.235 150.405 110.184 147.326 113.748C145.513 115.843 143.029 117.04 140.987 118.821C140.49 119.118 140.081 119.463 140.225 120.145C140.497 121.428 141.111 122.899 142.19 123.82C142.499 125.015 142.469 126.038 142.703 127.247C143.447 131.097 146.255 141.754 142.703 143.59C139.672 145.158 132.117 145.873 130.138 143.591C127.085 140.069 119.106 133.034 121.319 129.022C117.727 129.497 121.572 123.853 121.883 122.414Z" fill="#FFC5A6"/>
<path d="M143.33 110.153C142.97 112.094 141.277 113.512 139.325 113.385C137.371 113.258 135.876 111.634 135.771 109.662L143.33 110.153Z" fill="white"/>
<path d="M117.106 100.048C118.186 104.237 121.043 107.122 123.487 106.492C125.93 105.862 127.035 101.955 125.955 97.7657C124.875 93.5762 122.018 90.6915 119.575 91.3215C117.131 91.9518 116.025 95.8582 117.106 100.048Z" fill="#FFC5A6"/>
<path d="M160.339 164.911C159.678 209.118 160.158 199.878 155.323 204.076C154.154 205.084 150.877 205.687 146.566 205.97C133.003 206.872 109.165 204.637 108.259 202.132C105.129 193.466 107.34 190.772 104.732 177.502C104.457 176.091 104.12 174.562 103.727 172.898C101.549 163.784 99.4325 160.685 107.151 146.041C114.153 132.778 114.928 122.456 123.562 122.123C141.647 161.693 143.154 135.738 142.038 124.148C148.832 127.006 160.663 143.347 160.339 164.911Z" fill="#0097D5"/>
<path d="M128.469 157.816C130.595 160.17 130.065 164.112 127.965 166.492C125.863 168.867 122.626 169.918 119.477 170.29C116.327 170.662 113.129 170.461 109.979 170.833C108.582 171 107.204 171.281 105.86 171.659C105.903 171.488 105.94 171.316 105.975 171.14C106.405 169.06 106.839 166.977 107.324 164.912C107.65 164.651 107.971 164.383 108.285 164.108C110.488 162.166 112.353 159.82 114.813 158.221C116.61 157.052 118.678 156.325 120.791 155.963C123.499 155.504 126.629 155.773 128.469 157.816Z" fill="#53BAE4"/>
<path d="M158.307 150.386C158.307 150.386 162.686 152.757 162.521 156.668C162.356 160.58 161.39 183.573 161.39 183.573C161.39 183.573 158.871 183.94 158.164 181.658C157.459 179.375 157.961 161.669 157.961 161.669L158.307 150.386Z" fill="#006189"/>
<path d="M102.048 159.564C102.048 159.564 74.4871 241.448 89.7307 258.103C107.234 277.227 174.656 270.097 177.249 266.207C179.841 262.317 109.18 267.827 101.4 249.676C93.6211 231.524 111.773 161.509 108.531 159.564C105.29 157.619 103.993 155.027 102.048 159.564Z" fill="#E0E0E0"/>
<path d="M144.772 124.559C144.772 124.559 163.221 123.083 167.525 139.629C172.387 147.895 191.348 175.123 183.083 179.985C174.818 184.848 168.497 179.013 166.066 174.151C163.635 169.289 142.207 140.473 143.665 134.152C145.124 127.831 138.5 121.607 144.772 124.559Z" fill="#0097D5"/>
<path d="M156.727 222.509C156.727 222.509 196.73 222.509 228.584 242.511C244.882 257.326 220.462 339.455 217.5 340.937C213.796 342.419 223.302 341.664 221.079 338.7C219.597 335.737 203.397 281.031 202.656 266.957L144.874 248.437L156.727 222.509Z" fill="#0F3C8B"/>
<path d="M234.511 341.778C236.734 342.519 243.401 341.778 245.623 337.333C247.846 332.889 219.694 265.475 204.879 249.918C190.063 234.362 161.913 222.509 161.913 222.509L156.949 203.148C156.949 203.148 139.423 205.73 134.073 205.73C128.723 205.73 111.198 203.148 111.198 203.148C111.198 203.148 99.6849 230.658 106.352 244.733C106.352 244.733 107.834 260.289 133.021 261.771C158.208 263.252 177.469 266.216 184.136 269.92C190.804 273.623 234.511 341.778 234.511 341.778Z" fill="#231D5A"/>
<path d="M120.226 122.345C120.226 122.345 110.828 119.393 97.1767 140.793C89.398 151.49 76.8943 168.434 75.4352 174.268C74.4631 180.102 83.7019 183.992 91.4806 179.616C99.2594 175.241 113.36 158.709 118.708 152.389C124.057 146.068 129.45 123.451 120.226 122.345Z" fill="#0097D5"/>
<path d="M164.327 132.676C164.934 133.588 164.908 133.688 165.065 133.782C164.446 134.491 163.373 134.426 162.844 135.172C161.142 137.58 159.057 140.238 156.133 140.463C153.388 140.674 151.037 138.601 149.426 136.397C149.226 136.123 149.026 135.843 148.922 135.519C148.769 135.064 148.808 134.561 148.929 134.09C149.524 131.78 151.914 130.367 154.218 129.752C155.98 129.28 157.783 128.729 159.531 128.248C161.319 129.142 163.019 131.141 164.327 132.676Z" fill="#53BAE4"/>
<path d="M84.0373 168.253C84.0373 168.253 75.7351 168.837 75.3937 176.122C75.0523 183.407 80.8583 184.166 94.5483 182.862C108.238 181.556 131.155 180.683 135.549 180.403C139.943 180.122 141.704 184.098 147.114 182.892C152.525 181.685 153.08 180.25 155.508 180.366C157.935 180.479 163.073 185.1 165.548 184.243C168.021 183.385 159.946 179.113 155.204 176.457C150.462 173.801 140.338 171.694 136.408 172.484C132.476 173.273 105.893 169.278 96.6647 168.845C87.4367 168.412 84.0373 168.253 84.0373 168.253Z" fill="#FFB6AB"/>
<path d="M122.145 183.262H173.596V181.098H124.309C123.113 181.098 122.145 182.066 122.145 183.262Z" fill="#576061"/>
<path d="M155 182.569H234.182L240.87 133.518C241.074 132.019 239.99 130.674 238.577 130.674H164.078C162.928 130.674 161.952 131.579 161.786 132.799L155 182.569Z" fill="#576061"/>
<path d="M156.789 182.569H235.971L242.659 133.518C242.864 132.019 241.78 130.674 240.366 130.674H165.869C164.719 130.674 163.742 131.579 163.576 132.799L156.789 182.569Z" fill="#637172"/>
<path d="M68.5503 187.89L40 352.526H43.1727L74.8947 187L68.5503 187.89Z" fill="#E0E0E0"/>
<path d="M54.4674 189.727H344.217C348.428 189.727 351.842 185.249 351.842 179.727H46.842C46.842 185.249 50.2565 189.727 54.4674 189.727Z" fill="#E6C27B"/>
<path d="M124.526 130.742C124.707 132.905 122.784 134.832 120.653 135.257C118.524 135.677 116.326 134.907 114.458 133.804C112.589 132.7 110.931 131.264 109.062 130.161C108.232 129.672 107.366 129.254 106.477 128.902C106.572 128.827 106.663 128.749 106.755 128.667C107.852 127.713 108.952 126.76 110.072 125.836C110.358 125.829 110.644 125.817 110.929 125.797C112.934 125.653 114.921 125.15 116.924 125.3C118.387 125.409 119.814 125.87 121.114 126.549C122.779 127.423 124.371 128.867 124.526 130.742Z" fill="#53BAE4"/>
<path d="M90 179.813L94.1607 153.845C94.3248 152.808 95.1971 152.05 96.2143 152.06L107.592 152.174C108.609 152.185 109.466 152.96 109.609 154.001L113.154 179.763L90 179.813Z" fill="#002E31"/>
<path d="M100.5 167.286C100.5 167.286 105.682 151.961 100.5 144.5C88.9909 127.928 72.9084 137.585 52.4947 137.585C31.69 137.585 21.0662 128.057 13.5411 114.8C8.51315 104.028 6.63836 89.4049 17.525 79.5849C33.6945 64.9996 59.5771 79.5849 52.4947 94.0851C47.1068 105.116 30.9293 105.173 19.7382 99.0566C14.0225 95.9329 11.8238 92.4893 8.67186 87.0422C0.76097 73.3707 3.23447 57.1915 13.5411 43.9561C30.6395 21.9988 56.4785 5.84145 92.3336 1.69852C123.246 -1.87335 188.288 10.5822 222.5 51.0001" stroke="#002E31" stroke-width="0.822148"/>
<g filter="url(#filter0_d)">
<rect x="218" y="35" width="175" height="117" rx="11.8819" fill="white"/>
</g>
<path d="M271.07 51.2967C266.663 51.2967 263.905 54.3997 263.905 59.3345C263.905 64.2693 266.663 67.3616 271.07 67.3616C275.477 67.3616 278.235 64.2693 278.235 59.3345C278.235 54.3997 275.477 51.2967 271.07 51.2967ZM271.07 53.0852C274.249 53.0852 276.242 55.4988 276.242 59.3345C276.242 63.1595 274.249 65.573 271.07 65.573C267.892 65.573 265.898 63.1595 265.898 59.3345C265.898 55.4988 267.892 53.0852 271.07 53.0852ZM280.358 67.103H282.233V60.509C282.233 58.6126 283.386 57.3628 285.153 57.3628C286.877 57.3628 287.728 58.354 287.728 60.1642V67.103H289.603V59.8302C289.603 57.2873 288.18 55.7035 285.724 55.7035C283.989 55.7035 282.793 56.4792 282.168 57.686H282.125V55.8974H280.358V67.103ZM292.091 67.103H293.966V51.5552H292.091V67.103ZM296.595 67.103H298.47V55.8974H296.595V67.103ZM297.533 53.9041C298.19 53.9041 298.707 53.3762 298.707 52.7297C298.707 52.0724 298.19 51.5552 297.533 51.5552C296.886 51.5552 296.358 52.0724 296.358 52.7297C296.358 53.3762 296.886 53.9041 297.533 53.9041ZM301.002 67.103H302.877V60.509C302.877 58.6126 304.03 57.3628 305.797 57.3628C307.521 57.3628 308.372 58.354 308.372 60.1642V67.103H310.247V59.8302C310.247 57.2873 308.824 55.7035 306.368 55.7035C304.633 55.7035 303.437 56.4792 302.812 57.686H302.769V55.8974H301.002V67.103ZM317.132 57.3304C318.899 57.3304 320.073 58.6665 320.116 60.5413H314.029C314.147 58.6773 315.375 57.3304 317.132 57.3304ZM320.073 63.8922C319.761 64.9481 318.716 65.67 317.293 65.67C315.278 65.67 314.018 64.2585 314.018 62.1144V62.0066H322.056V61.2955C322.056 57.9015 320.192 55.7035 317.164 55.7035C314.072 55.7035 312.089 58.0631 312.089 61.5433C312.089 65.0666 314.039 67.297 317.25 67.297C319.696 67.297 321.592 65.8532 321.916 63.8922H320.073Z" fill="black"/>
<path d="M274.615 137.004H276.651L270.919 121.456H269.001L263.269 137.004H265.306L266.868 132.554H273.053L274.615 137.004ZM269.928 123.816H269.993L272.482 130.905H267.439L269.928 123.816ZM291.639 125.798H289.786L287.545 134.913H287.502L284.959 125.798H283.149L280.617 134.913H280.573L278.332 125.798H276.468L279.604 137.004H281.511L284.032 128.33H284.075L286.607 137.004H288.514L291.639 125.798ZM296.66 135.603C295.313 135.603 294.419 134.903 294.419 133.836C294.419 132.78 295.281 132.112 296.789 132.015L299.785 131.832V132.748C299.785 134.364 298.427 135.603 296.66 135.603ZM296.24 137.198C297.748 137.198 299.17 136.357 299.838 135.075H299.882V137.004H301.659V129.257C301.659 127.026 300 125.604 297.371 125.604C294.721 125.604 293.061 127.091 292.932 129.03H294.742C294.979 127.931 295.884 127.253 297.328 127.253C298.88 127.253 299.785 128.071 299.785 129.44V130.377L296.574 130.56C293.988 130.711 292.512 131.918 292.512 133.836C292.512 135.851 294.009 137.198 296.24 137.198ZM304.978 141.195C307.004 141.195 307.93 140.408 308.889 137.79L313.296 125.798H311.324L308.221 135.129H308.189L305.086 125.798H303.082L307.219 137.014L306.96 137.801C306.529 139.105 305.948 139.611 304.903 139.611C304.665 139.611 304.375 139.6 304.17 139.557V141.13C304.375 141.173 304.752 141.195 304.978 141.195Z" fill="black"/>
<rect x="218" y="78" width="175" height="31" fill="#0070F4"/>
<path d="M266.847 101.042V94.5341H273.527V92.4977H266.847V87.5737H274.141V85.4942H264.433V101.042H266.847ZM280.444 101.257C283.687 101.257 285.821 99.0271 285.821 95.3745C285.821 91.7327 283.677 89.5024 280.444 89.5024C277.212 89.5024 275.068 91.7327 275.068 95.3745C275.068 99.0271 277.201 101.257 280.444 101.257ZM280.444 99.3396C278.623 99.3396 277.438 97.8958 277.438 95.3745C277.438 92.8641 278.623 91.4203 280.444 91.4203C282.265 91.4203 283.45 92.8641 283.45 95.3745C283.45 97.8958 282.276 99.3396 280.444 99.3396ZM297.35 93.6075C297.145 91.3772 295.367 89.5024 292.447 89.5024C289.225 89.5024 287.114 91.7758 287.114 95.3745C287.114 99.0379 289.225 101.257 292.469 101.257C295.195 101.257 297.123 99.6197 297.371 97.2062H295.13C294.861 98.5207 293.923 99.3073 292.49 99.3073C290.68 99.3073 289.484 97.8635 289.484 95.3745C289.484 92.9395 290.669 91.4418 292.469 91.4418C293.988 91.4418 294.893 92.4007 295.13 93.6075H297.35ZM308.738 89.7071H306.411V96.3119C306.411 98.079 305.398 99.2426 303.717 99.2426C302.112 99.2426 301.293 98.316 301.293 96.5921V89.7071H298.966V97.0446C298.966 99.6413 300.474 101.247 302.942 101.247C304.676 101.247 305.829 100.482 306.454 99.1241H306.508V101.042H308.738V89.7071ZM310.839 92.9179C310.839 94.5664 311.906 95.6008 314.061 96.0964L315.903 96.5274C317.142 96.8076 317.563 97.2385 317.563 97.9712C317.563 98.8978 316.701 99.4797 315.3 99.4797C313.878 99.4797 313.07 98.8978 312.854 97.7126H310.548C310.764 99.8676 312.466 101.257 315.3 101.257C317.972 101.257 319.901 99.8352 319.901 97.7665C319.901 96.1288 319.017 95.2237 316.701 94.685L314.858 94.2648C313.63 93.9846 313.113 93.4998 313.113 92.7886C313.113 91.8836 313.953 91.2694 315.214 91.2694C316.518 91.2694 317.326 91.959 317.455 93.058H319.642C319.567 90.9677 317.854 89.5024 315.214 89.5024C312.606 89.5024 310.839 90.8923 310.839 92.9179ZM326.452 91.3772C328.079 91.3772 329.178 92.5947 329.232 94.3294H323.564C323.683 92.6162 324.825 91.3772 326.452 91.3772ZM329.221 97.7126C328.908 98.7039 327.928 99.3719 326.603 99.3719C324.739 99.3719 323.553 98.0682 323.553 96.0964V95.9564H331.559V95.159C331.559 91.7219 329.598 89.5024 326.452 89.5024C323.252 89.5024 321.205 91.8728 321.205 95.4284C321.205 99.0056 323.219 101.257 326.549 101.257C329.145 101.257 331.106 99.7814 331.43 97.7126H329.221ZM337.625 101.236C339.274 101.236 340.567 100.406 341.235 99.1133H341.278V101.042H343.54V85.4942H341.202V91.5926H341.159C340.523 90.3428 339.23 89.5239 337.604 89.5239C334.759 89.5239 332.863 91.7974 332.863 95.3745C332.863 98.9517 334.759 101.236 337.625 101.236ZM338.239 91.4849C340.028 91.4849 341.224 93.0257 341.224 95.3745C341.224 97.745 340.028 99.2642 338.239 99.2642C336.397 99.2642 335.244 97.7665 335.244 95.3745C335.244 92.9933 336.397 91.4849 338.239 91.4849Z" fill="white"/>
<path d="M284.674 13.2714C284.838 15.6704 286.861 17.2312 289.896 17.2312C293.008 17.2312 295.032 15.6223 295.032 13.0498C295.032 11.0844 293.885 9.92825 290.985 9.29237L289.444 8.95516C287.546 8.54087 286.804 7.78938 286.804 6.69104C286.804 5.27476 288.143 4.42692 289.877 4.42692C291.688 4.42692 292.893 5.36147 293.047 6.88373H294.781C294.704 4.52327 292.7 2.86613 289.925 2.86613C287.045 2.86613 285.021 4.47509 285.021 6.76812C285.021 8.7432 286.226 10.0053 289.01 10.6123L290.551 10.9495C292.478 11.3734 293.249 12.1442 293.249 13.31C293.249 14.6781 291.881 15.6704 289.993 15.6704C287.998 15.6704 286.611 14.7648 286.409 13.2714H284.674ZM300.957 17.1734C303.722 17.1734 305.591 15.1791 305.591 11.99C305.591 8.79137 303.722 6.80665 300.957 6.80665C298.182 6.80665 296.313 8.79137 296.313 11.99C296.313 15.1791 298.182 17.1734 300.957 17.1734ZM300.957 15.6993C299.184 15.6993 298.018 14.3505 298.018 11.99C298.018 9.62957 299.184 8.28074 300.957 8.28074C302.73 8.28074 303.886 9.62957 303.886 11.99C303.886 14.3505 302.73 15.6993 300.957 15.6993ZM307.287 17H308.963V11.1037C308.963 9.40798 309.994 8.29037 311.574 8.29037C313.116 8.29037 313.877 9.17675 313.877 10.7954V17H315.553V10.4967C315.553 8.22293 314.281 6.80665 312.085 6.80665C310.534 6.80665 309.464 7.50034 308.905 8.57941H308.867V6.98008H307.287V17ZM318.53 20.7478C320.341 20.7478 321.17 20.0445 322.028 17.7033L325.968 6.98008H324.205L321.43 15.3236H321.401L318.627 6.98008H316.835L320.534 17.0096L320.303 17.713C319.918 18.8787 319.397 19.3316 318.463 19.3316C318.251 19.3316 317.991 19.3219 317.808 19.2834V20.69C317.991 20.7286 318.328 20.7478 318.53 20.7478ZM330.4 15.7475C329.196 15.7475 328.396 15.1213 328.396 14.1674C328.396 13.2233 329.167 12.6259 330.516 12.5392L333.194 12.3754V13.1944C333.194 14.6395 331.98 15.7475 330.4 15.7475ZM330.024 17.1734C331.373 17.1734 332.645 16.4219 333.242 15.2754H333.281V17H334.87V10.0728C334.87 8.07841 333.387 6.80665 331.036 6.80665C328.666 6.80665 327.182 8.13622 327.066 9.87044H328.685C328.897 8.88771 329.706 8.28074 330.997 8.28074C332.385 8.28074 333.194 9.01296 333.194 10.2366V11.0748L330.323 11.2385C328.011 11.3734 326.691 12.4525 326.691 14.1674C326.691 15.9691 328.03 17.1734 330.024 17.1734Z" fill="black"/>
<circle cx="269.314" cy="11.2726" r="6.31409" stroke="#FFA621" stroke-width="3.15705"/>
<circle cx="200" cy="157" r="4" fill="#C4C4C4"/>
</g>
<defs>
<filter id="filter0_d" x="204.421" y="24.8155" width="202.159" height="144.159" filterUnits="userSpaceOnUse" color-interpolation-filters="sRGB">
<feFlood flood-opacity="0" result="BackgroundImageFix"/>
<feColorMatrix in="SourceAlpha" type="matrix" values="0 0 0 0 0 0 0 0 0 0 0 0 0 0 0 0 0 0 127 0"/>
<feOffset dy="3.39484"/>
<feGaussianBlur stdDeviation="6.78967"/>
<feColorMatrix type="matrix" values="0 0 0 0 0 0 0 0 0 0 0 0 0 0 0 0 0 0 0.16 0"/>
<feBlend mode="normal" in2="BackgroundImageFix" result="effect1_dropShadow"/>
<feBlend mode="normal" in="SourceGraphic" in2="effect1_dropShadow" result="shape"/>
</filter>
<linearGradient id="paint0_linear" x1="122.608" y1="63.5649" x2="122.608" y2="148.82" gradientUnits="userSpaceOnUse">
<stop stop-color="#FFB32F"/>
<stop offset="1" stop-color="#F29100"/>
</linearGradient>
<clipPath id="clip0">
<rect width="450" height="300" fill="white" transform="matrix(-1 0 0 1 450 0)"/>
</clipPath>
</defs>
</svg>
