<svg width="24" height="24" viewBox="0 0 24 24" fill="none" xmlns="http://www.w3.org/2000/svg">
<path fill-rule="evenodd" clip-rule="evenodd" d="M13.7168 15.2912C14.9208 15.2912 15.9008 16.2642 15.9008 17.4602V20.5362C15.9008 20.7932 16.1068 20.9992 16.3708 21.0052H18.2768C19.7788 21.0052 20.9998 19.7992 20.9998 18.3172V9.59322C20.9928 9.08322 20.7498 8.60322 20.3328 8.28422L13.7398 3.02622C12.8548 2.32522 11.6168 2.32522 10.7288 3.02822L4.18076 8.28222C3.74776 8.61122 3.50476 9.09122 3.49976 9.61022V18.3172C3.49976 19.7992 4.72076 21.0052 6.22276 21.0052H8.14676C8.41776 21.0052 8.63776 20.7902 8.63776 20.5262C8.63776 20.4682 8.64476 20.4102 8.65676 20.3552V17.4602C8.65676 16.2712 9.63076 15.2992 10.8258 15.2912H13.7168ZM18.2768 22.5052H16.3528C15.2508 22.4792 14.4008 21.6142 14.4008 20.5362V17.4602C14.4008 17.0912 14.0938 16.7912 13.7168 16.7912H10.8308C10.4618 16.7932 10.1568 17.0942 10.1568 17.4602V20.5262C10.1568 20.6012 10.1468 20.6732 10.1258 20.7412C10.0178 21.7312 9.17176 22.5052 8.14676 22.5052H6.22276C3.89376 22.5052 1.99976 20.6262 1.99976 18.3172V9.60322C2.00976 8.60922 2.46776 7.69922 3.25876 7.10022L9.79376 1.85522C11.2328 0.71522 13.2378 0.71522 14.6738 1.85322L21.2558 7.10322C22.0288 7.69222 22.4868 8.60022 22.4998 9.58222V18.3172C22.4998 20.6262 20.6058 22.5052 18.2768 22.5052Z" fill="#A7ABB1"/>
</svg>
