<svg width="88" height="88" viewBox="0 0 88 88" fill="none" xmlns="http://www.w3.org/2000/svg">
<path d="M14.6667 22C12.7218 22 10.8565 22.7727 9.48123 24.1479C8.10596 25.5232 7.33334 27.3885 7.33334 29.3334V73.3334C7.33334 77.3667 10.6333 80.6667 14.6667 80.6667H58.6667C60.6116 80.6667 62.4769 79.8941 63.8521 78.5188C65.2274 77.1436 66 75.2783 66 73.3334H14.6667V22ZM73.3333 7.33337H29.3333C27.3884 7.33337 25.5232 8.10599 24.1479 9.48126C22.7726 10.8565 22 12.7218 22 14.6667V58.6667C22 60.6116 22.7726 62.4769 24.1479 63.8522C25.5232 65.2274 27.3884 66 29.3333 66H73.3333C75.2783 66 77.1435 65.2274 78.5188 63.8522C79.8941 62.4769 80.6667 60.6116 80.6667 58.6667V14.6667C80.6667 12.7218 79.8941 10.8565 78.5188 9.48126C77.1435 8.10599 75.2783 7.33337 73.3333 7.33337ZM55 58.6667H29.3333V33H55V58.6667ZM73.3333 58.6667H62.3333V33H73.3333V58.6667ZM73.3333 25.6667H29.3333V14.6667H73.3333V25.6667Z" fill="#F3CD03"/>
</svg>
