<svg width="21" height="21" viewBox="0 0 21 21" fill="none" xmlns="http://www.w3.org/2000/svg">
<path d="M15.2556 9.09073V5.11654C15.2556 5.00278 15.203 4.89768 15.1287 4.81453L10.673 0.135704C10.5899 0.0482254 10.4716 0 10.3536 0H3.28926C1.98509 0 0.943359 1.06352 0.943359 2.36785V15.726C0.943359 17.0303 1.98509 18.0764 3.28926 18.0764H8.86546C9.92017 19.827 11.8373 21 14.0213 21C17.3389 21 20.0482 18.3039 20.0482 14.9819C20.0526 12.0801 17.9692 9.65533 15.2556 9.09073ZM10.7913 1.53632L13.7806 4.68315H11.8417C11.2639 4.68315 10.7913 4.20618 10.7913 3.62844V1.53632ZM3.28926 17.2009C2.47087 17.2009 1.81879 16.5444 1.81879 15.726V2.36785C1.81879 1.54498 2.47087 0.875427 3.28926 0.875427H9.91585V3.62844C9.91585 4.69196 10.7781 5.55858 11.8417 5.55858H14.3801V8.97681C14.2489 8.97249 14.1438 8.95935 14.0301 8.95935C12.5026 8.95935 11.0976 9.54591 10.0384 10.4651H4.47984C4.23903 10.4651 4.04212 10.662 4.04212 10.9026C4.04212 11.1434 4.23903 11.3403 4.47984 11.3403H9.22435C8.91353 11.7781 8.65526 12.2158 8.45403 12.6972H4.47984C4.23903 12.6972 4.04212 12.8941 4.04212 13.1349C4.04212 13.3756 4.23903 13.5726 4.47984 13.5726H8.16948C8.06005 14.0104 8.00317 14.4961 8.00317 14.9819C8.00317 15.7697 8.15634 16.5488 8.43208 17.2054H3.28926V17.2009ZM14.0257 20.1291C11.1896 20.1291 8.88293 17.8224 8.88293 14.9862C8.88293 12.1501 11.1851 9.84343 14.0257 9.84343C16.8662 9.84343 19.1684 12.1501 19.1684 14.9862C19.1684 17.8224 16.8619 20.1291 14.0257 20.1291Z" fill="white"/>
<path d="M4.47873 9.14762H8.91242C9.15323 9.14762 9.35014 8.95055 9.35014 8.7099C9.35014 8.46909 9.15323 8.27219 8.91242 8.27219H4.47873C4.23792 8.27219 4.04102 8.46909 4.04102 8.7099C4.04102 8.95055 4.23792 9.14762 4.47873 9.14762Z" fill="white"/>
<path d="M16.2666 14.8943L14.4678 16.8332V12.0538C14.4678 11.813 14.2708 11.6161 14.0301 11.6161C13.7893 11.6161 13.5924 11.813 13.5924 12.0538V16.8332L11.7803 14.8943C11.614 14.7193 11.334 14.7062 11.1589 14.8725C10.9837 15.0388 10.9706 15.3145 11.1371 15.4896L13.6975 18.2427C13.7807 18.3301 13.8944 18.3827 14.017 18.3827C14.1395 18.3827 14.2533 18.3301 14.3364 18.2427L16.9014 15.4896C17.0677 15.3145 17.0589 15.0345 16.8837 14.8725C16.7043 14.7062 16.433 14.7193 16.2666 14.8943Z" fill="white"/>
</svg>
