<svg width="14" height="14" viewBox="0 0 14 14" fill="none" xmlns="http://www.w3.org/2000/svg">
<path d="M2.33333 2.91669H4.08333V2.33335C4.08333 2.02393 4.20625 1.72719 4.42504 1.5084C4.64383 1.2896 4.94058 1.16669 5.25 1.16669H8.75C9.05942 1.16669 9.35616 1.2896 9.57496 1.5084C9.79375 1.72719 9.91667 2.02393 9.91667 2.33335V2.91669H11.6667C11.8214 2.91669 11.9697 2.97815 12.0791 3.08754C12.1885 3.19694 12.25 3.34531 12.25 3.50002C12.25 3.65473 12.1885 3.8031 12.0791 3.9125C11.9697 4.0219 11.8214 4.08335 11.6667 4.08335H11.0833V11.6667C11.0833 11.9761 10.9604 12.2729 10.7416 12.4916C10.5228 12.7104 10.2261 12.8334 9.91667 12.8334H4.08333C3.77391 12.8334 3.47717 12.7104 3.25838 12.4916C3.03958 12.2729 2.91667 11.9761 2.91667 11.6667V4.08335H2.33333C2.17862 4.08335 2.03025 4.0219 1.92085 3.9125C1.81146 3.8031 1.75 3.65473 1.75 3.50002C1.75 3.34531 1.81146 3.19694 1.92085 3.08754C2.03025 2.97815 2.17862 2.91669 2.33333 2.91669ZM4.08333 4.08335V11.6667H9.91667V4.08335H4.08333ZM5.25 2.91669H8.75V2.33335H5.25V2.91669ZM5.25 5.25002H6.41667V10.5H5.25V5.25002ZM7.58333 5.25002H8.75V10.5H7.58333V5.25002Z" fill="#979CA9"/>
</svg>
