<svg width="24" height="24" viewBox="0 0 24 24" fill="none" xmlns="http://www.w3.org/2000/svg">
<path fill-rule="evenodd" clip-rule="evenodd" d="M12 2C17.514 2 22 6.486 22 12C22 17.514 17.514 22 12 22C6.486 22 2 17.514 2 12C2 6.486 6.486 2 12 2ZM12 3.5C7.313 3.5 3.5 7.313 3.5 12C3.5 16.687 7.313 20.5 12 20.5C16.687 20.5 20.5 16.687 20.5 12C20.5 7.313 16.687 3.5 12 3.5Z" fill="black"/>
<path d="M11.5658 14.3965C11.48 14.3965 11.4084 14.3679 11.3512 14.3107C11.294 14.2535 11.2654 14.1819 11.2654 14.0961V13.5238C11.2844 13.0183 11.4132 12.5844 11.6516 12.2219C11.8901 11.8595 12.2382 11.4446 12.696 10.9772C13.068 10.5957 13.3398 10.281 13.5115 10.033C13.6832 9.78502 13.769 9.5132 13.769 9.21753C13.769 8.77879 13.583 8.43066 13.2111 8.17314C12.8486 7.91562 12.4242 7.78686 11.9378 7.78686C10.8028 7.78686 10.1351 8.35913 9.93484 9.50366C9.88715 9.71349 9.76316 9.81841 9.56287 9.81841H8.87615C8.78077 9.81841 8.70447 9.78979 8.64724 9.73257C8.59001 9.67534 8.5614 9.59904 8.5614 9.50366C8.58048 8.97908 8.72831 8.49742 9.00491 8.05869C9.29104 7.61041 9.69163 7.25274 10.2067 6.98569C10.7217 6.71863 11.3131 6.5851 11.9807 6.5851C12.6865 6.5851 13.2778 6.70909 13.7547 6.95707C14.2412 7.19552 14.5988 7.51026 14.8277 7.90131C15.0566 8.28282 15.1711 8.69295 15.1711 9.13169C15.1711 9.61811 15.0614 10.0378 14.842 10.3907C14.6227 10.7436 14.2936 11.1537 13.8549 11.621C13.4924 12.0026 13.2206 12.3268 13.0394 12.5939C12.8582 12.8514 12.7533 13.1423 12.7246 13.4666C12.7056 13.7337 12.696 13.934 12.696 14.0675C12.6483 14.2869 12.5291 14.3965 12.3384 14.3965H11.5658Z" fill="black"/>
<circle cx="12" cy="16.6105" r="1.02967" fill="black"/>
</svg>
