<svg width="24" height="24" viewBox="0 0 24 24" fill="none" xmlns="http://www.w3.org/2000/svg">
<path fill-rule="evenodd" clip-rule="evenodd" d="M12 2.25C16.549 2.25 20.25 5.979 20.25 10.563C20.25 16.198 13.794 21.75 12 21.75C10.206 21.75 3.75 16.198 3.75 10.563C3.75 5.979 7.451 2.25 12 2.25ZM12 3.75C8.278 3.75 5.25 6.807 5.25 10.563C5.25 15.342 10.874 19.998 12 20.246C13.126 19.997 18.75 15.341 18.75 10.563C18.75 6.807 15.722 3.75 12 3.75ZM12.001 7.25C13.793 7.25 15.251 8.708 15.251 10.501C15.251 12.293 13.793 13.75 12.001 13.75C10.209 13.75 8.751 12.293 8.751 10.501C8.751 8.708 10.209 7.25 12.001 7.25ZM12.001 8.75C11.036 8.75 10.251 9.535 10.251 10.501C10.251 11.466 11.036 12.25 12.001 12.25C12.966 12.25 13.751 11.466 13.751 10.501C13.751 9.535 12.966 8.75 12.001 8.75Z" fill="black"/>
</svg>
