<svg width="17" height="16" viewBox="0 0 17 16" fill="none" xmlns="http://www.w3.org/2000/svg">
<path opacity="0.5" fill-rule="evenodd" clip-rule="evenodd" d="M16.5 14.3757C16.5 14.2549 16.4629 14.1582 16.3887 14.0857L14.8592 12.5788C14.785 12.5063 14.6861 12.47 14.5624 12.47H14.0429C14.6366 11.7934 15.1004 11.0321 15.4343 10.1863C15.7683 9.34045 15.9353 8.45837 15.9353 7.54003C15.9353 6.16252 15.5889 4.89981 14.8963 3.75189C14.2037 2.60397 13.2699 1.69167 12.095 1.015C10.92 0.338334 9.62758 0 8.21763 0C6.80767 0 5.51522 0.338334 4.34026 1.015C3.1653 1.69167 2.23152 2.60397 1.53891 3.75189C0.846303 4.89981 0.5 6.16252 0.5 7.54003C0.5 8.91753 0.846303 10.1802 1.53891 11.3282C2.23152 12.4761 3.1653 13.3884 4.34026 14.0651C5.51522 14.7417 6.80767 15.0801 8.21763 15.0801C9.15759 15.0801 10.0605 14.9169 10.9262 14.5907C11.792 14.2644 12.5712 13.8113 13.2638 13.2313V13.7388C13.2638 13.8355 13.3009 13.9321 13.3751 14.0288L14.9045 15.4994C14.9787 15.5961 15.0777 15.6444 15.2014 15.6444C15.325 15.6444 15.4364 15.5961 15.5353 15.4994L16.3887 14.7019C16.4629 14.6053 16.5 14.4965 16.5 14.3757ZM11.186 12.5607C10.2707 13.0803 9.28129 13.3401 8.21764 13.3401C7.15399 13.3401 6.16456 13.0803 5.24932 12.5607C4.33409 12.0411 3.61056 11.3342 3.07874 10.4401C2.54692 9.5459 2.28101 8.57923 2.28101 7.54006C2.28101 6.50089 2.54692 5.53422 3.07874 4.64005C3.61056 3.74588 4.33409 3.039 5.24932 2.51941C6.16456 1.99983 7.15399 1.74004 8.21764 1.74004C9.28129 1.74004 10.2707 1.99983 11.186 2.51941C12.1012 3.039 12.8247 3.74588 13.3565 4.64005C13.8884 5.53422 14.1543 6.50089 14.1543 7.54006C14.1543 8.57923 13.8884 9.5459 13.3565 10.4401C12.8247 11.3342 12.1012 12.0411 11.186 12.5607Z" fill="#8B98B2"/>
</svg>
